<svg xmlns="http://www.w3.org/2000/svg" xmlns:xlink="http://www.w3.org/1999/xlink" xmlns:lucid="lucid" width="1360" height="1760"><g transform="translate(0 0)" lucid:page-tab-id="YGcM5DNywbTK"><path d="M0 0h1360v1760H0z" fill="#fff"/><path d="M80 80h80v80H80zM80 160h80v80H80zM80 240h80v80H80zM80 320h80v80H80zM80 400h80v80H80zM80 480h80v80H80zM80 560h80v80H80zM80 640h80v80H80zM80 720h80v80H80z" fill="#fff"/><path d="M80 160h80M80 160h80m-80 80h80M80 240h80m-80 80h80M80 320h80m-80 80h80M80 400h80m-80 80h80M80 480h80m-80 80h80M80 560h80m-80 80h80M80 640h80m-80 80h80M80 720h80M160 80v80M160 160v80M160 240v80M160 320v80M160 400v80M160 480v80M160 560v80M160 640v80M160 720v80M80 80h80v720H80z" stroke="#000" stroke-width="4" fill="none"/><use xlink:href="#a" transform="matrix(1,0,0,1,85,85) translate(30 38.6)"/><use xlink:href="#b" transform="matrix(1,0,0,1,85,165) translate(30 38.6)"/><use xlink:href="#c" transform="matrix(1,0,0,1,85,244.99999999999997) translate(30 38.6)"/><use xlink:href="#d" transform="matrix(1,0,0,1,85,324.99999999999994) translate(30 38.6)"/><use xlink:href="#e" transform="matrix(1,0,0,1,85,404.9999999999999) translate(30 38.6)"/><use xlink:href="#f" transform="matrix(1,0,0,1,85,484.9999999999999) translate(30 38.6)"/><use xlink:href="#g" transform="matrix(1,0,0,1,85,564.9999999999999) translate(30 38.6)"/><use xlink:href="#h" transform="matrix(1,0,0,1,85,644.9999999999999) translate(30 38.6)"/><use xlink:href="#i" transform="matrix(1,0,0,1,85,724.9999999999999) translate(30 38.6)"/><g filter="url(#j)"><path d="M240 80h80v40h-80z" stroke="#3d4752" stroke-width="4" fill="#fff"/><use xlink:href="#k" transform="matrix(1,0,0,1,245,85) translate(19.691358024691354 18.555555555555557)"/></g><g filter="url(#j)"><path d="M240 120h80v40h-80z" stroke="#3d4752" stroke-width="4" fill="#fff"/><use xlink:href="#l" transform="matrix(1,0,0,1,245,125) translate(12.975308641975307 18.555555555555557)"/></g><path d="M162 119.6h54.53" stroke="#494949" stroke-width="4" fill="none"/><path d="M162 121.6h-2v-4h2zM231.53 119.6l-14.27 4.64v-9.28z" fill="#494949"/><path d="M238 119.6l-22.74 7.4v-14.8zm-18.74 1.88l5.8-1.88-5.8-1.88z" fill="#494949"/><g filter="url(#j)"><path d="M398 80h80v40h-80z" stroke="#3d4752" stroke-width="4" fill="#fff"/><use xlink:href="#k" transform="matrix(1,0,0,1,403,85) translate(19.691358024691354 18.555555555555557)"/></g><g filter="url(#j)"><path d="M398 120h80v40h-80z" stroke="#3d4752" stroke-width="4" fill="#fff"/><use xlink:href="#l" transform="matrix(1,0,0,1,403,125) translate(12.975308641975307 18.555555555555557)"/></g><path d="M320 119.6h54.53" stroke="#494949" stroke-width="4" fill="none"/><path d="M389.53 119.6l-14.27 4.64v-9.28z" fill="#494949"/><path d="M396 119.6l-22.74 7.4v-14.8zm-18.74 1.88l5.8-1.88-5.8-1.88z" fill="#494949"/><g filter="url(#j)"><path d="M238 320h80v40h-80z" stroke="#3d4752" stroke-width="4" fill="#fff"/><use xlink:href="#k" transform="matrix(1,0,0,1,243,325) translate(19.691358024691354 18.555555555555557)"/></g><g filter="url(#j)"><path d="M238 360h80v40h-80z" stroke="#3d4752" stroke-width="4" fill="#fff"/><use xlink:href="#l" transform="matrix(1,0,0,1,243,365) translate(12.975308641975307 18.555555555555557)"/></g><path d="M160 359.6h54.53" stroke="#494949" stroke-width="4" fill="none"/><path d="M229.53 359.6l-14.27 4.64v-9.28z" fill="#494949"/><path d="M236 359.6l-22.74 7.4v-14.8zm-18.74 1.88l5.8-1.88-5.8-1.88z" fill="#494949"/><g filter="url(#j)"><path d="M240 720h80v40h-80z" stroke="#3d4752" stroke-width="4" fill="#fff"/><use xlink:href="#k" transform="matrix(1,0,0,1,245,725) translate(19.691358024691354 18.555555555555557)"/></g><g filter="url(#j)"><path d="M240 760h80v40h-80z" stroke="#3d4752" stroke-width="4" fill="#fff"/><use xlink:href="#l" transform="matrix(1,0,0,1,245,765) translate(12.975308641975307 18.555555555555557)"/></g><path d="M162 759.6h54.53" stroke="#494949" stroke-width="4" fill="none"/><path d="M231.53 759.6l-14.27 4.64v-9.28z" fill="#494949"/><path d="M238 759.6l-22.74 7.4v-14.8zm-18.74 1.88l5.8-1.88-5.8-1.88z" fill="#494949"/><g filter="url(#j)"><path d="M240 480h80v40h-80z" stroke="#3d4752" stroke-width="4" fill="#fff"/><use xlink:href="#k" transform="matrix(1,0,0,1,245,485) translate(19.691358024691354 18.555555555555557)"/></g><g filter="url(#j)"><path d="M240 520h80v40h-80z" stroke="#3d4752" stroke-width="4" fill="#fff"/><use xlink:href="#l" transform="matrix(1,0,0,1,245,525) translate(12.975308641975307 18.555555555555557)"/></g><path d="M162 519.6h54.53" stroke="#494949" stroke-width="4" fill="none"/><path d="M231.53 519.6l-14.27 4.64v-9.28z" fill="#494949"/><path d="M238 519.6l-22.74 7.4v-14.8zm-18.74 1.88l5.8-1.88-5.8-1.88z" fill="#494949"/><g filter="url(#j)"><path d="M398 480h80v40h-80z" stroke="#3d4752" stroke-width="4" fill="#fff"/><use xlink:href="#k" transform="matrix(1,0,0,1,403,485) translate(19.691358024691354 18.555555555555557)"/></g><g filter="url(#j)"><path d="M398 520h80v40h-80z" stroke="#3d4752" stroke-width="4" fill="#fff"/><use xlink:href="#l" transform="matrix(1,0,0,1,403,525) translate(12.975308641975307 18.555555555555557)"/></g><path d="M320 519.6h54.53" stroke="#494949" stroke-width="4" fill="none"/><path d="M389.53 519.6l-14.27 4.64v-9.28z" fill="#494949"/><path d="M396 519.6l-22.74 7.4v-14.8zm-18.74 1.88l5.8-1.88-5.8-1.88z" fill="#494949"/><g filter="url(#j)"><path d="M556 480h80v40h-80z" stroke="#3d4752" stroke-width="4" fill="#fff"/><use xlink:href="#k" transform="matrix(1,0,0,1,561,485) translate(19.691358024691354 18.555555555555557)"/></g><g filter="url(#j)"><path d="M556 520h80v40h-80z" stroke="#3d4752" stroke-width="4" fill="#fff"/><use xlink:href="#l" transform="matrix(1,0,0,1,561,525) translate(12.975308641975307 18.555555555555557)"/></g><path d="M478 519.6h54.53" stroke="#494949" stroke-width="4" fill="none"/><path d="M547.53 519.6l-14.27 4.64v-9.28z" fill="#494949"/><path d="M554 519.6l-22.74 7.4v-14.8zm-18.74 1.88l5.8-1.88-5.8-1.88z" fill="#494949"/><path d="M80 80h80v80H80zM80 160h80v80H80zM80 240h80v80H80zM80 320h80v80H80zM80 400h80v80H80zM80 480h80v80H80zM80 560h80v80H80zM80 640h80v80H80zM80 720h80v80H80z" fill="#fff"/><path d="M80 160h80M80 160h80m-80 80h80M80 240h80m-80 80h80M80 320h80m-80 80h80M80 400h80m-80 80h80M80 480h80m-80 80h80M80 560h80m-80 80h80M80 640h80m-80 80h80M80 720h80M160 80v80M160 160v80M160 240v80M160 320v80M160 400v80M160 480v80M160 560v80M160 640v80M160 720v80M80 80h80v720H80z" stroke="#000" stroke-width="4" fill="none"/><use xlink:href="#a" transform="matrix(1,0,0,1,85,85) translate(30 38.6)"/><use xlink:href="#b" transform="matrix(1,0,0,1,85,165) translate(30 38.6)"/><use xlink:href="#c" transform="matrix(1,0,0,1,85,244.99999999999997) translate(30 38.6)"/><use xlink:href="#d" transform="matrix(1,0,0,1,85,324.99999999999994) translate(30 38.6)"/><use xlink:href="#e" transform="matrix(1,0,0,1,85,404.9999999999999) translate(30 38.6)"/><use xlink:href="#f" transform="matrix(1,0,0,1,85,484.9999999999999) translate(30 38.6)"/><use xlink:href="#g" transform="matrix(1,0,0,1,85,564.9999999999999) translate(30 38.6)"/><use xlink:href="#h" transform="matrix(1,0,0,1,85,644.9999999999999) translate(30 38.6)"/><use xlink:href="#i" transform="matrix(1,0,0,1,85,724.9999999999999) translate(30 38.6)"/><path d="M80 80h80v80H80zM80 160h80v80H80zM80 240h80v80H80zM80 320h80v80H80zM80 400h80v80H80zM80 480h80v80H80zM80 560h80v80H80zM80 640h80v80H80zM80 720h80v80H80z" fill="#fff"/><path d="M80 160h80M80 160h80m-80 80h80M80 240h80m-80 80h80M80 320h80m-80 80h80M80 400h80m-80 80h80M80 480h80m-80 80h80M80 560h80m-80 80h80M80 640h80m-80 80h80M80 720h80M160 80v80M160 160v80M160 240v80M160 320v80M160 400v80M160 480v80M160 560v80M160 640v80M160 720v80M80 80h80v720H80z" stroke="#000" stroke-width="4" fill="none"/><use xlink:href="#a" transform="matrix(1,0,0,1,85,85) translate(30 38.6)"/><use xlink:href="#b" transform="matrix(1,0,0,1,85,165) translate(30 38.6)"/><use xlink:href="#c" transform="matrix(1,0,0,1,85,244.99999999999997) translate(30 38.6)"/><use xlink:href="#d" transform="matrix(1,0,0,1,85,324.99999999999994) translate(30 38.6)"/><use xlink:href="#e" transform="matrix(1,0,0,1,85,404.9999999999999) translate(30 38.6)"/><use xlink:href="#f" transform="matrix(1,0,0,1,85,484.9999999999999) translate(30 38.6)"/><use xlink:href="#g" transform="matrix(1,0,0,1,85,564.9999999999999) translate(30 38.6)"/><use xlink:href="#h" transform="matrix(1,0,0,1,85,644.9999999999999) translate(30 38.6)"/><use xlink:href="#i" transform="matrix(1,0,0,1,85,724.9999999999999) translate(30 38.6)"/><path d="M80 80h80v80H80zM80 160h80v80H80zM80 240h80v80H80zM80 320h80v80H80zM80 400h80v80H80zM80 480h80v80H80zM80 560h80v80H80zM80 640h80v80H80zM80 720h80v80H80z" fill="#fff"/><path d="M80 160h80M80 160h80m-80 80h80M80 240h80m-80 80h80M80 320h80m-80 80h80M80 400h80m-80 80h80M80 480h80m-80 80h80M80 560h80m-80 80h80M80 640h80m-80 80h80M80 720h80M160 80v80M160 160v80M160 240v80M160 320v80M160 400v80M160 480v80M160 560v80M160 640v80M160 720v80M80 80h80v720H80z" stroke="#000" stroke-width="4" fill="none"/><use xlink:href="#a" transform="matrix(1,0,0,1,85,85) translate(30 38.6)"/><use xlink:href="#b" transform="matrix(1,0,0,1,85,165) translate(30 38.6)"/><use xlink:href="#c" transform="matrix(1,0,0,1,85,244.99999999999997) translate(30 38.6)"/><use xlink:href="#d" transform="matrix(1,0,0,1,85,324.99999999999994) translate(30 38.6)"/><use xlink:href="#e" transform="matrix(1,0,0,1,85,404.9999999999999) translate(30 38.6)"/><use xlink:href="#f" transform="matrix(1,0,0,1,85,484.9999999999999) translate(30 38.6)"/><use xlink:href="#g" transform="matrix(1,0,0,1,85,564.9999999999999) translate(30 38.6)"/><use xlink:href="#h" transform="matrix(1,0,0,1,85,644.9999999999999) translate(30 38.6)"/><use xlink:href="#i" transform="matrix(1,0,0,1,85,724.9999999999999) translate(30 38.6)"/><path d="M80 920h80v80H80zM80 1000h80v80H80zM80 1080h80v80H80zM80 1160h80v80H80zM80 1240h80v80H80zM80 1320h80v80H80zM80 1400h80v80H80zM80 1480h80v80H80zM80 1560h80v80H80z" fill="#fff"/><path d="M80 1000h80M80 1000h80m-80 80h80M80 1080h80m-80 80h80M80 1160h80m-80 80h80M80 1240h80m-80 80h80M80 1320h80m-80 80h80M80 1400h80m-80 80h80M80 1480h80m-80 80h80M80 1560h80M160 920v80M160 1000v80M160 1080v80M160 1160v80M160 1240v80M160 1320v80M160 1400v80M160 1480v80M160 1560v80M80 920h80v720H80z" stroke="#000" stroke-width="4" fill="none"/><use xlink:href="#a" transform="matrix(1,0,0,1,85,925) translate(30 38.6)"/><use xlink:href="#b" transform="matrix(1,0,0,1,85,1005) translate(30 38.6)"/><use xlink:href="#c" transform="matrix(1,0,0,1,85,1085) translate(30 38.6)"/><use xlink:href="#d" transform="matrix(1,0,0,1,85,1165) translate(30 38.6)"/><use xlink:href="#e" transform="matrix(1,0,0,1,85,1245) translate(30 38.6)"/><use xlink:href="#f" transform="matrix(1,0,0,1,85,1325) translate(30 38.6)"/><use xlink:href="#g" transform="matrix(1,0,0,1,85,1405) translate(30 38.6)"/><use xlink:href="#h" transform="matrix(1,0,0,1,85,1485) translate(30 38.6)"/><use xlink:href="#i" transform="matrix(1,0,0,1,85,1565) translate(30 38.6)"/><path d="M80 920h80v80H80zM80 1000h80v80H80zM80 1080h80v80H80zM80 1160h80v80H80zM80 1240h80v80H80zM80 1320h80v80H80zM80 1400h80v80H80zM80 1480h80v80H80zM80 1560h80v80H80z" fill="#fff"/><path d="M80 1000h80M80 1000h80m-80 80h80M80 1080h80m-80 80h80M80 1160h80m-80 80h80M80 1240h80m-80 80h80M80 1320h80m-80 80h80M80 1400h80m-80 80h80M80 1480h80m-80 80h80M80 1560h80M160 920v80M160 1000v80M160 1080v80M160 1160v80M160 1240v80M160 1320v80M160 1400v80M160 1480v80M160 1560v80M80 920h80v720H80z" stroke="#000" stroke-width="4" fill="none"/><use xlink:href="#a" transform="matrix(1,0,0,1,85,925) translate(30 38.6)"/><use xlink:href="#b" transform="matrix(1,0,0,1,85,1005) translate(30 38.6)"/><use xlink:href="#c" transform="matrix(1,0,0,1,85,1085) translate(30 38.6)"/><use xlink:href="#d" transform="matrix(1,0,0,1,85,1165) translate(30 38.6)"/><use xlink:href="#e" transform="matrix(1,0,0,1,85,1245) translate(30 38.6)"/><use xlink:href="#f" transform="matrix(1,0,0,1,85,1325) translate(30 38.6)"/><use xlink:href="#g" transform="matrix(1,0,0,1,85,1405) translate(30 38.6)"/><use xlink:href="#h" transform="matrix(1,0,0,1,85,1485) translate(30 38.6)"/><use xlink:href="#i" transform="matrix(1,0,0,1,85,1565) translate(30 38.6)"/><path d="M80 920h80v80H80zM80 1000h80v80H80zM80 1080h80v80H80zM80 1160h80v80H80zM80 1240h80v80H80zM80 1320h80v80H80zM80 1400h80v80H80zM80 1480h80v80H80zM80 1560h80v80H80z" fill="#fff"/><path d="M80 1000h80M80 1000h80m-80 80h80M80 1080h80m-80 80h80M80 1160h80m-80 80h80M80 1240h80m-80 80h80M80 1320h80m-80 80h80M80 1400h80m-80 80h80M80 1480h80m-80 80h80M80 1560h80M160 920v80M160 1000v80M160 1080v80M160 1160v80M160 1240v80M160 1320v80M160 1400v80M160 1480v80M160 1560v80M80 920h80v720H80z" stroke="#000" stroke-width="4" fill="none"/><use xlink:href="#a" transform="matrix(1,0,0,1,85,925) translate(30 38.6)"/><use xlink:href="#b" transform="matrix(1,0,0,1,85,1005) translate(30 38.6)"/><use xlink:href="#c" transform="matrix(1,0,0,1,85,1085) translate(30 38.6)"/><use xlink:href="#d" transform="matrix(1,0,0,1,85,1165) translate(30 38.6)"/><use xlink:href="#e" transform="matrix(1,0,0,1,85,1245) translate(30 38.6)"/><use xlink:href="#f" transform="matrix(1,0,0,1,85,1325) translate(30 38.6)"/><use xlink:href="#g" transform="matrix(1,0,0,1,85,1405) translate(30 38.6)"/><use xlink:href="#h" transform="matrix(1,0,0,1,85,1485) translate(30 38.6)"/><use xlink:href="#i" transform="matrix(1,0,0,1,85,1565) translate(30 38.6)"/><path d="M80 920h80v80H80zM80 1000h80v80H80zM80 1080h80v80H80zM80 1160h80v80H80zM80 1240h80v80H80zM80 1320h80v80H80zM80 1400h80v80H80zM80 1480h80v80H80zM80 1560h80v80H80z" fill="#fff"/><path d="M80 1000h80M80 1000h80m-80 80h80M80 1080h80m-80 80h80M80 1160h80m-80 80h80M80 1240h80m-80 80h80M80 1320h80m-80 80h80M80 1400h80m-80 80h80M80 1480h80m-80 80h80M80 1560h80M160 920v80M160 1000v80M160 1080v80M160 1160v80M160 1240v80M160 1320v80M160 1400v80M160 1480v80M160 1560v80M80 920h80v720H80z" stroke="#000" stroke-width="4" fill="none"/><use xlink:href="#a" transform="matrix(1,0,0,1,85,925) translate(30 38.6)"/><use xlink:href="#b" transform="matrix(1,0,0,1,85,1005) translate(30 38.6)"/><use xlink:href="#c" transform="matrix(1,0,0,1,85,1085) translate(30 38.6)"/><use xlink:href="#d" transform="matrix(1,0,0,1,85,1165) translate(30 38.6)"/><use xlink:href="#e" transform="matrix(1,0,0,1,85,1245) translate(30 38.6)"/><use xlink:href="#f" transform="matrix(1,0,0,1,85,1325) translate(30 38.6)"/><use xlink:href="#g" transform="matrix(1,0,0,1,85,1405) translate(30 38.6)"/><use xlink:href="#h" transform="matrix(1,0,0,1,85,1485) translate(30 38.6)"/><use xlink:href="#i" transform="matrix(1,0,0,1,85,1565) translate(30 38.6)"/><g filter="url(#m)"><path d="M320 960c0 22.1-17.9 40-40 40s-40-17.9-40-40 17.9-40 40-40 40 17.9 40 40z" stroke="#3d4752" stroke-width="4" fill="#fff"/><use xlink:href="#n" transform="matrix(1,0,0,1,245,925) translate(9.814814814814813 40.333333333333336)"/><use xlink:href="#o" transform="matrix(1,0,0,1,245,925) translate(42.407407407407405 40.333333333333336)"/></g><path d="M162 959h54.6" stroke="#494949" stroke-width="4" fill="none"/><path d="M162 961h-2v-4h2zM231.6 959l-14.28 4.64v-9.28z" fill="#494949"/><path d="M238.06 959l-22.74 7.4v-14.8zm-18.74 1.88l5.8-1.88-5.8-1.88z" fill="#494949"/><g filter="url(#m)"><path d="M440 900c0 22.1-17.9 40-40 40s-40-17.9-40-40 17.9-40 40-40 40 17.9 40 40z" stroke="#3d4752" stroke-width="4" fill="#fff"/><use xlink:href="#n" transform="matrix(1,0,0,1,365,865) translate(9.814814814814813 40.333333333333336)"/><use xlink:href="#o" transform="matrix(1,0,0,1,365,865) translate(42.407407407407405 40.333333333333336)"/></g><g filter="url(#m)"><path d="M440 1020c0 22.1-17.9 40-40 40s-40-17.9-40-40 17.9-40 40-40 40 17.9 40 40z" stroke="#3d4752" stroke-width="4" fill="#fff"/><use xlink:href="#n" transform="matrix(1,0,0,1,365,985) translate(9.814814814814813 40.333333333333336)"/><use xlink:href="#o" transform="matrix(1,0,0,1,365,985) translate(42.407407407407405 40.333333333333336)"/></g><path d="M309.62 930.3l30.18-18.9" stroke="#494949" stroke-width="4" fill="none"/><path d="M310.68 932l-1.4.87-2.02-2.14-.9-.74 2.2-1.4zM342.9 914.94l-4.94-7.86 14.55-3.64z" fill="#494949"/><path d="M342.65 918.33l-7.84-12.52L358 900zm-1.53-9.98l2 3.2 3.9-4.68z" fill="#494949"/><path d="M311.87 987.25l28.62 20.32" stroke="#494949" stroke-width="4" fill="none"/><path d="M313.03 985.62l-2.32 3.26-1.8-1.28.37-.34 2.24-2.72zM352.72 1016.25l-14.3-4.48 5.35-7.55z" fill="#494949"/><path d="M358 1020l-22.82-7.14 8.56-12.05zm-16.37-9.3l5.8 1.8-3.62-4.88z" fill="#494949"/><g filter="url(#m)"><path d="M318 1600c0 22.1-17.9 40-40 40s-40-17.9-40-40 17.9-40 40-40 40 17.9 40 40z" stroke="#3d4752" stroke-width="4" fill="#fff"/><use xlink:href="#n" transform="matrix(1,0,0,1,243,1565) translate(9.814814814814813 40.333333333333336)"/><use xlink:href="#o" transform="matrix(1,0,0,1,243,1565) translate(42.407407407407405 40.333333333333336)"/></g><path d="M160 1599h54.6" stroke="#494949" stroke-width="4" fill="none"/><path d="M229.6 1599l-14.28 4.64v-9.28z" fill="#494949"/><path d="M236.06 1599l-22.74 7.4v-14.8zm-18.74 1.88l5.8-1.88-5.8-1.88z" fill="#494949"/><g filter="url(#m)"><path d="M438 1660c0 22.1-17.9 40-40 40s-40-17.9-40-40 17.9-40 40-40 40 17.9 40 40z" stroke="#3d4752" stroke-width="4" fill="#fff"/><use xlink:href="#n" transform="matrix(1,0,0,1,363,1625) translate(9.814814814814813 40.333333333333336)"/><use xlink:href="#o" transform="matrix(1,0,0,1,363,1625) translate(42.407407407407405 40.333333333333336)"/></g><path d="M309.87 1627.25l28.62 20.32" stroke="#494949" stroke-width="4" fill="none"/><path d="M311.03 1625.62l-2.32 3.26-1.8-1.28.37-.34 2.24-2.72zM350.72 1656.25l-14.3-4.48 5.35-7.55z" fill="#494949"/><path d="M356 1660l-22.82-7.14 8.56-12.05zm-16.37-9.3l5.8 1.8-3.62-4.88z" fill="#494949"/><g filter="url(#m)"><path d="M318 1200c0 22.1-17.9 40-40 40s-40-17.9-40-40 17.9-40 40-40 40 17.9 40 40z" stroke="#3d4752" stroke-width="4" fill="#fff"/><use xlink:href="#n" transform="matrix(1,0,0,1,243,1165) translate(9.814814814814813 40.333333333333336)"/><use xlink:href="#o" transform="matrix(1,0,0,1,243,1165) translate(42.407407407407405 40.333333333333336)"/></g><path d="M160 1199h54.6" stroke="#494949" stroke-width="4" fill="none"/><path d="M229.6 1199l-14.28 4.64v-9.28z" fill="#494949"/><path d="M236.06 1199l-22.74 7.4v-14.8zm-18.74 1.88l5.8-1.88-5.8-1.88z" fill="#494949"/><g filter="url(#m)"><path d="M438 1140c0 22.1-17.9 40-40 40s-40-17.9-40-40 17.9-40 40-40 40 17.9 40 40z" stroke="#3d4752" stroke-width="4" fill="#fff"/><use xlink:href="#n" transform="matrix(1,0,0,1,363,1105) translate(9.814814814814813 40.333333333333336)"/><use xlink:href="#o" transform="matrix(1,0,0,1,363,1105) translate(42.407407407407405 40.333333333333336)"/></g><g filter="url(#m)"><path d="M438 1260c0 22.1-17.9 40-40 40s-40-17.9-40-40 17.9-40 40-40 40 17.9 40 40z" stroke="#3d4752" stroke-width="4" fill="#fff"/><use xlink:href="#n" transform="matrix(1,0,0,1,363,1225) translate(9.814814814814813 40.333333333333336)"/><use xlink:href="#o" transform="matrix(1,0,0,1,363,1225) translate(42.407407407407405 40.333333333333336)"/></g><path d="M307.62 1170.3l30.18-18.9" stroke="#494949" stroke-width="4" fill="none"/><path d="M308.68 1172l-1.4.87-2.02-2.14-.9-.74 2.2-1.4zM340.9 1154.94l-4.94-7.86 14.55-3.64z" fill="#494949"/><path d="M340.65 1158.33l-7.84-12.52 23.2-5.8zm-1.53-9.98l2 3.2 3.9-4.68z" fill="#494949"/><path d="M309.87 1227.25l28.62 20.32" stroke="#494949" stroke-width="4" fill="none"/><path d="M311.03 1225.62l-2.32 3.26-1.8-1.28.37-.34 2.24-2.72zM350.72 1256.25l-14.3-4.48 5.35-7.55z" fill="#494949"/><path d="M356 1260l-22.82-7.14 8.56-12.05zm-16.37-9.3l5.8 1.8-3.62-4.88z" fill="#494949"/><g filter="url(#m)"><path d="M556 1320c0 22.1-17.9 40-40 40s-40-17.9-40-40 17.9-40 40-40 40 17.9 40 40z" stroke="#3d4752" stroke-width="4" fill="#fff"/><use xlink:href="#n" transform="matrix(1,0,0,1,481,1285) translate(9.814814814814813 40.333333333333336)"/><use xlink:href="#o" transform="matrix(1,0,0,1,481,1285) translate(42.407407407407405 40.333333333333336)"/></g><path d="M427.87 1287.25l28.62 20.32" stroke="#494949" stroke-width="4" fill="none"/><path d="M468.72 1316.25l-14.3-4.48 5.35-7.55z" fill="#494949"/><path d="M474 1320l-22.82-7.14 8.56-12.05zm-16.37-9.3l5.8 1.8-3.62-4.88z" fill="#494949"/><g filter="url(#m)"><path d="M320 1440c0 22.1-17.9 40-40 40s-40-17.9-40-40 17.9-40 40-40 40 17.9 40 40z" stroke="#3d4752" stroke-width="4" fill="#fff"/><use xlink:href="#n" transform="matrix(1,0,0,1,245,1405) translate(9.814814814814813 40.333333333333336)"/><use xlink:href="#o" transform="matrix(1,0,0,1,245,1405) translate(42.407407407407405 40.333333333333336)"/></g><path d="M162 1439h54.6" stroke="#494949" stroke-width="4" fill="none"/><path d="M231.6 1439l-14.28 4.64v-9.28z" fill="#494949"/><path d="M238.06 1439l-22.74 7.4v-14.8zm-18.74 1.88l5.8-1.88-5.8-1.88z" fill="#494949"/><defs><path d="M101-251c68 0 85 55 85 127S166 4 100 4C33 4 14-52 14-124c0-73 17-127 87-127zm-1 229c47 0 54-49 54-102s-4-102-53-102c-51 0-55 48-55 102 0 53 5 102 54 102" id="p"/><use transform="matrix(0.05,0,0,0.05,0,0)" xlink:href="#p" id="a"/><path d="M27 0v-27h64v-190l-56 39v-29l58-41h29v221h61V0H27" id="q"/><use transform="matrix(0.05,0,0,0.05,0,0)" xlink:href="#q" id="b"/><path d="M101-251c82-7 93 87 43 132L82-64C71-53 59-42 53-27h129V0H18c2-99 128-94 128-182 0-28-16-43-45-43s-46 15-49 41l-32-3c6-41 34-60 81-64" id="r"/><use transform="matrix(0.05,0,0,0.05,0,0)" xlink:href="#r" id="c"/><path d="M126-127c33 6 58 20 58 59 0 88-139 92-164 29-3-8-5-16-6-25l32-3c6 27 21 44 54 44 32 0 52-15 52-46 0-38-36-46-79-43v-28c39 1 72-4 72-42 0-27-17-43-46-43-28 0-47 15-49 41l-32-3c6-42 35-63 81-64 48-1 79 21 79 65 0 36-21 52-52 59" id="s"/><use transform="matrix(0.05,0,0,0.05,0,0)" xlink:href="#s" id="d"/><path d="M155-56V0h-30v-56H8v-25l114-167h33v167h35v25h-35zm-30-156c-27 46-58 90-88 131h88v-131" id="t"/><use transform="matrix(0.05,0,0,0.05,0,0)" xlink:href="#t" id="e"/><path d="M54-142c48-35 137-8 131 61C196 18 31 33 14-55l32-4c7 23 22 37 52 37 35-1 51-22 54-58 4-55-73-65-99-34H22l8-134h141v27H59" id="u"/><use transform="matrix(0.05,0,0,0.05,0,0)" xlink:href="#u" id="f"/><path d="M110-160c48 1 74 30 74 79 0 53-28 85-80 85-65 0-83-55-86-122-5-90 50-162 133-122 14 7 22 21 27 39l-31 6c-5-40-67-38-82-6-9 19-15 44-15 74 11-20 30-34 60-33zm-7 138c34 0 49-23 49-58s-16-56-50-56c-29 0-50 16-49 49 1 36 15 65 50 65" id="v"/><use transform="matrix(0.05,0,0,0.05,0,0)" xlink:href="#v" id="g"/><path d="M64 0c3-98 48-159 88-221H18v-27h164v26C143-157 98-101 97 0H64" id="w"/><use transform="matrix(0.05,0,0,0.05,0,0)" xlink:href="#w" id="h"/><path d="M134-131c28 9 52 24 51 62-1 50-34 73-85 73S17-19 16-69c0-36 21-54 49-61-75-25-45-126 34-121 46 3 78 18 79 63 0 33-17 51-44 57zm-34-11c31 1 46-15 46-44 0-28-17-43-47-42-29 0-46 13-45 42 1 28 16 44 46 44zm1 122c35 0 51-18 51-52 0-30-18-46-53-46-33 0-51 17-51 47 0 34 19 51 53 51" id="x"/><use transform="matrix(0.05,0,0,0.05,0,0)" xlink:href="#x" id="i"/><path fill="#3d4752" d="M194 0L95-120 63-95V0H30v-248h33v124l119-124h40L117-140 236 0h-42" id="y"/><path fill="#3d4752" d="M100-194c63 0 86 42 84 106H49c0 40 14 67 53 68 26 1 43-12 49-29l28 8c-11 28-37 45-77 45C44 4 14-33 15-96c1-61 26-98 85-98zm52 81c6-60-76-77-97-28-3 7-6 17-6 28h103" id="z"/><path fill="#3d4752" d="M179-190L93 31C79 59 56 82 12 73V49c39 6 53-20 64-50L1-190h34L92-34l54-156h33" id="A"/><g id="k"><use transform="matrix(0.04938271604938272,0,0,0.04938271604938272,0,0)" xlink:href="#y"/><use transform="matrix(0.04938271604938272,0,0,0.04938271604938272,11.851851851851853,0)" xlink:href="#z"/><use transform="matrix(0.04938271604938272,0,0,0.04938271604938272,21.7283950617284,0)" xlink:href="#A"/></g><filter id="j" filterUnits="objectBoundingBox" x="-.13" y="-.1" width="1.25" height="1.5"><feOffset result="offOut" in="SourceAlpha" dy="6"/><feGaussianBlur result="blurOut" in="offOut" stdDeviation="5"/><feColorMatrix result="colorOut" in="blurOut" values="0 0 0 0 0 0 0 0 0 0 0 0 0 0 0 0 0 0 0.16862745098039217 0"/><feBlend in="SourceGraphic" in2="colorOut"/></filter><path fill="#3d4752" d="M137 0h-34L2-248h35l83 218 83-218h36" id="B"/><path fill="#3d4752" d="M141-36C126-15 110 5 73 4 37 3 15-17 15-53c-1-64 63-63 125-63 3-35-9-54-41-54-24 1-41 7-42 31l-33-3c5-37 33-52 76-52 45 0 72 20 72 64v82c-1 20 7 32 28 27v20c-31 9-61-2-59-35zM48-53c0 20 12 33 32 33 41-3 63-29 60-74-43 2-92-5-92 41" id="C"/><path fill="#3d4752" d="M24 0v-261h32V0H24" id="D"/><path fill="#3d4752" d="M84 4C-5 8 30-112 23-190h32v120c0 31 7 50 39 49 72-2 45-101 50-169h31l1 190h-30c-1-10 1-25-2-33-11 22-28 36-60 37" id="E"/><g id="l"><use transform="matrix(0.04938271604938272,0,0,0.04938271604938272,0,0)" xlink:href="#B"/><use transform="matrix(0.04938271604938272,0,0,0.04938271604938272,10.518518518518519,0)" xlink:href="#C"/><use transform="matrix(0.04938271604938272,0,0,0.04938271604938272,20.395061728395063,0)" xlink:href="#D"/><use transform="matrix(0.04938271604938272,0,0,0.04938271604938272,24.296296296296298,0)" xlink:href="#E"/><use transform="matrix(0.04938271604938272,0,0,0.04938271604938272,34.17283950617284,0)" xlink:href="#z"/></g><path fill="#3d4752" d="M68-38c1 34 0 65-14 84H32c9-13 17-26 17-46H33v-38h35" id="F"/><g id="n"><use transform="matrix(0.07407407407407408,0,0,0.07407407407407408,0,0)" xlink:href="#y"/><use transform="matrix(0.07407407407407408,0,0,0.07407407407407408,17.77777777777778,0)" xlink:href="#F"/></g><use transform="matrix(0.07407407407407408,0,0,0.07407407407407408,0,0)" xlink:href="#B" id="o"/><filter id="m" filterUnits="objectBoundingBox" x="-.13" y="-.05" width="1.25" height="1.25"><feOffset result="offOut" in="SourceAlpha" dy="6"/><feGaussianBlur result="blurOut" in="offOut" stdDeviation="5"/><feColorMatrix result="colorOut" in="blurOut" values="0 0 0 0 0 0 0 0 0 0 0 0 0 0 0 0 0 0 0.16862745098039217 0"/><feBlend in="SourceGraphic" in2="colorOut"/></filter></defs></g></svg>