<svg xmlns="http://www.w3.org/2000/svg" xmlns:xlink="http://www.w3.org/1999/xlink" xmlns:lucid="lucid" width="1360" height="1760"><g transform="translate(0 0)" lucid:page-tab-id="YGcM5DNywbTK"><path d="M0 0h1360v1760H0z" fill="#fff"/><g filter="url(#a)"><path d="M640 40c0 22.1-17.9 40-40 40s-40-17.9-40-40 17.9-40 40-40 40 17.9 40 40z" stroke="#3d4752" stroke-width="4" fill="#fff"/><use xlink:href="#b" transform="matrix(1,0,0,1,580,0) translate(3.209876543209873 43.55555555555556)"/><use xlink:href="#c" transform="matrix(1,0,0,1,580,0) translate(24.938271604938272 43.55555555555556)"/></g><g filter="url(#a)"><path d="M320 120c0 22.1-17.9 40-40 40s-40-17.9-40-40 17.9-40 40-40 40 17.9 40 40z" stroke="#3d4752" stroke-width="4" fill="#fff"/><use xlink:href="#b" transform="matrix(1,0,0,1,260,80) translate(3.209876543209873 43.55555555555556)"/><use xlink:href="#c" transform="matrix(1,0,0,1,260,80) translate(24.938271604938272 43.55555555555556)"/></g><g filter="url(#a)"><path d="M480 200c0 22.1-17.9 40-40 40s-40-17.9-40-40 17.9-40 40-40 40 17.9 40 40z" stroke="#3d4752" stroke-width="4" fill="#fff"/><use xlink:href="#b" transform="matrix(1,0,0,1,420,160) translate(3.209876543209873 43.55555555555556)"/><use xlink:href="#c" transform="matrix(1,0,0,1,420,160) translate(24.938271604938272 43.55555555555556)"/></g><g filter="url(#a)"><path d="M160 200c0 22.1-17.9 40-40 40s-40-17.9-40-40 17.9-40 40-40 40 17.9 40 40z" stroke="#3d4752" stroke-width="4" fill="#fff"/><use xlink:href="#b" transform="matrix(1,0,0,1,100,160) translate(3.209876543209873 43.55555555555556)"/><use xlink:href="#c" transform="matrix(1,0,0,1,100,160) translate(24.938271604938272 43.55555555555556)"/></g><g filter="url(#a)"><path d="M80 300c0 22.1-17.9 40-40 40S0 322.1 0 300s17.9-40 40-40 40 17.9 40 40z" stroke="#3d4752" stroke-width="4" fill="#fff"/><use xlink:href="#b" transform="matrix(1,0,0,1,20,260) translate(3.209876543209873 43.55555555555556)"/><use xlink:href="#c" transform="matrix(1,0,0,1,20,260) translate(24.938271604938272 43.55555555555556)"/></g><g filter="url(#a)"><path d="M240 300c0 22.1-17.9 40-40 40s-40-17.9-40-40 17.9-40 40-40 40 17.9 40 40z" stroke="#3d4752" stroke-width="4" fill="#fff"/><use xlink:href="#b" transform="matrix(1,0,0,1,180,260) translate(3.209876543209873 43.55555555555556)"/><use xlink:href="#c" transform="matrix(1,0,0,1,180,260) translate(24.938271604938272 43.55555555555556)"/></g><g filter="url(#a)"><path d="M400 300c0 22.1-17.9 40-40 40s-40-17.9-40-40 17.9-40 40-40 40 17.9 40 40z" stroke="#3d4752" stroke-width="4" fill="#fff"/><use xlink:href="#b" transform="matrix(1,0,0,1,340,260) translate(3.209876543209873 43.55555555555556)"/><use xlink:href="#c" transform="matrix(1,0,0,1,340,260) translate(24.938271604938272 43.55555555555556)"/></g><g filter="url(#a)"><path d="M560 300c0 22.1-17.9 40-40 40s-40-17.9-40-40 17.9-40 40-40 40 17.9 40 40z" stroke="#3d4752" stroke-width="4" fill="#fff"/><use xlink:href="#b" transform="matrix(1,0,0,1,500,260) translate(3.209876543209873 43.55555555555556)"/><use xlink:href="#c" transform="matrix(1,0,0,1,500,260) translate(24.938271604938272 43.55555555555556)"/></g><path d="M568.4 67.6L343 115.54" stroke="#494949" stroke-width="4" fill="none"/><path d="M569.28 65.62l2.3 2.42.18.9-2.93.63-.84-3.92 1.13-.24zM343.25 120.22l-14.92-1.57 13-7.5z" fill="#494949"/><path d="M345.78 122.5L322 120l20.7-11.96zm-11.12-5.2l6.06.64-.78-3.68z" fill="#494949"/><path d="M315.26 142.7l65.1 45.07" stroke="#494949" stroke-width="4" fill="none"/><path d="M316.4 141.05l-2.28 3.3-1.58-1.1 2.14-3.4zM392.68 196.3L378.3 192l5.3-7.62z" fill="#494949"/><path d="M398 200l-22.9-6.87 8.4-12.15zm-16.48-9.12l5.84 1.75-3.7-4.85z" fill="#494949"/><path d="M247.42 146.47L180.2 188.6" stroke="#494949" stroke-width="4" fill="none"/><path d="M249.28 145.62l1.2 1.28-2 1.26-2.12-3.4 1.57-.97zM182.04 192.92l-14.55 3.64 9.6-11.5z" fill="#494949"/><path d="M185.2 194.2L162 200l15.34-18.33zm-12.23-1.07l5.9-1.5-2-3.18z" fill="#494949"/><path d="M466.2 232.77l14.17 17.7" stroke="#494949" stroke-width="4" fill="none"/><path d="M467.77 231.52l-3.12 2.5-1.3-1.63 2.27-1.68.86-.82zM489.74 262.18l-12.53-8.24 7.25-5.8z" fill="#494949"/><path d="M493.8 267.23l-20-13.14 11.55-9.24zm-13.2-13.45l5.1 3.35-2.15-5.7z" fill="#494949"/><path d="M413.8 232.74l-14.2 17.75" stroke="#494949" stroke-width="4" fill="none"/><path d="M416.6 232.45l-1.23 1.54-3.12-2.5 1.26-1.6zM402.77 253.96l-12.54 8.25 5.3-14.03z" fill="#494949"/><path d="M406.16 254.12l-19.97 13.14 8.43-22.37zm-11.88 3.03l5.1-3.34-2.95-2.35z" fill="#494949"/><path d="M147.26 231.92l12.2 19.78" stroke="#494949" stroke-width="4" fill="none"/><path d="M148.96 230.87l-3.4 2.1-.94-1.52 1-.73 2.05-1.94zM167.34 264.46l-11.43-9.7 7.9-4.87z" fill="#494949"/><path d="M170.74 269.97L152.5 254.5l12.6-7.76zM159.3 255l4.64 3.95-1.44-5.9z" fill="#494949"/><path d="M90.76 230.1l-12.23 19.76" stroke="#494949" stroke-width="4" fill="none"/><path d="M92.74 229.27l.58.48-.86 1.4-3.4-2.1 1.36-2.22zM82.1 252.92l-11.46 9.7 3.56-14.58z" fill="#494949"/><path d="M85.48 252.67l-18.24 15.45 5.67-23.23zm-11.44 4.44l4.65-3.93-3.2-1.98z" fill="#494949"/><g filter="url(#a)"><path d="M960 120c0 22.1-17.9 40-40 40s-40-17.9-40-40 17.9-40 40-40 40 17.9 40 40z" stroke="#3d4752" stroke-width="4" fill="#fff"/><use xlink:href="#b" transform="matrix(1,0,0,1,900,80) translate(3.209876543209873 43.55555555555556)"/><use xlink:href="#c" transform="matrix(1,0,0,1,900,80) translate(24.938271604938272 43.55555555555556)"/></g><g filter="url(#a)"><path d="M1120 200c0 22.1-17.9 40-40 40s-40-17.9-40-40 17.9-40 40-40 40 17.9 40 40z" stroke="#3d4752" stroke-width="4" fill="#fff"/><use xlink:href="#b" transform="matrix(1,0,0,1,1060,160) translate(3.209876543209873 43.55555555555556)"/><use xlink:href="#c" transform="matrix(1,0,0,1,1060,160) translate(24.938271604938272 43.55555555555556)"/></g><g filter="url(#a)"><path d="M800 200c0 22.1-17.9 40-40 40s-40-17.9-40-40 17.9-40 40-40 40 17.9 40 40z" stroke="#3d4752" stroke-width="4" fill="#fff"/><use xlink:href="#b" transform="matrix(1,0,0,1,740,160) translate(3.209876543209873 43.55555555555556)"/><use xlink:href="#c" transform="matrix(1,0,0,1,740,160) translate(24.938271604938272 43.55555555555556)"/></g><g filter="url(#a)"><path d="M720 300c0 22.1-17.9 40-40 40s-40-17.9-40-40 17.9-40 40-40 40 17.9 40 40z" stroke="#3d4752" stroke-width="4" fill="#fff"/><use xlink:href="#b" transform="matrix(1,0,0,1,660,260) translate(3.209876543209873 43.55555555555556)"/><use xlink:href="#c" transform="matrix(1,0,0,1,660,260) translate(24.938271604938272 43.55555555555556)"/></g><g filter="url(#a)"><path d="M880 300c0 22.1-17.9 40-40 40s-40-17.9-40-40 17.9-40 40-40 40 17.9 40 40z" stroke="#3d4752" stroke-width="4" fill="#fff"/><use xlink:href="#b" transform="matrix(1,0,0,1,820,260) translate(3.209876543209873 43.55555555555556)"/><use xlink:href="#c" transform="matrix(1,0,0,1,820,260) translate(24.938271604938272 43.55555555555556)"/></g><g filter="url(#a)"><path d="M1040 300c0 22.1-17.9 40-40 40s-40-17.9-40-40 17.9-40 40-40 40 17.9 40 40z" stroke="#3d4752" stroke-width="4" fill="#fff"/><use xlink:href="#b" transform="matrix(1,0,0,1,980,260) translate(3.209876543209873 43.55555555555556)"/><use xlink:href="#c" transform="matrix(1,0,0,1,980,260) translate(24.938271604938272 43.55555555555556)"/></g><g filter="url(#a)"><path d="M1200 300c0 22.1-17.9 40-40 40s-40-17.9-40-40 17.9-40 40-40 40 17.9 40 40z" stroke="#3d4752" stroke-width="4" fill="#fff"/><use xlink:href="#b" transform="matrix(1,0,0,1,1140,260) translate(3.209876543209873 43.55555555555556)"/><use xlink:href="#c" transform="matrix(1,0,0,1,1140,260) translate(24.938271604938272 43.55555555555556)"/></g><path d="M955.26 142.7l65.1 45.07" stroke="#494949" stroke-width="4" fill="none"/><path d="M956.4 141.05l-2.28 3.3-1.58-1.1 2.14-3.4zM1032.68 196.3l-14.37-4.3 5.3-7.62z" fill="#494949"/><path d="M1038 200l-22.9-6.87 8.4-12.15zm-16.48-9.12l5.84 1.75-3.7-4.85z" fill="#494949"/><path d="M887.42 146.47L820.2 188.6" stroke="#494949" stroke-width="4" fill="none"/><path d="M889.28 145.62l1.2 1.28-2 1.26-2.12-3.4 1.57-.97zM822.04 192.92l-14.55 3.64 9.6-11.5z" fill="#494949"/><path d="M825.2 194.2L802 200l15.34-18.33zm-12.23-1.07l5.9-1.5-2-3.18z" fill="#494949"/><path d="M1106.2 232.77l14.17 17.7" stroke="#494949" stroke-width="4" fill="none"/><path d="M1107.77 231.52l-3.12 2.5-1.3-1.63 2.27-1.68.86-.82zM1129.74 262.18l-12.53-8.24 7.25-5.8z" fill="#494949"/><path d="M1133.8 267.23l-20-13.14 11.55-9.24zm-13.2-13.45l5.1 3.35-2.15-5.7z" fill="#494949"/><path d="M1053.8 232.74l-14.2 17.75" stroke="#494949" stroke-width="4" fill="none"/><path d="M1056.6 232.45l-1.23 1.54-3.12-2.5 1.26-1.6zM1042.77 253.96l-12.54 8.25 5.3-14.03z" fill="#494949"/><path d="M1046.16 254.12l-19.97 13.14 8.43-22.37zm-11.88 3.03l5.1-3.34-2.95-2.35z" fill="#494949"/><path d="M787.26 231.92l12.2 19.78" stroke="#494949" stroke-width="4" fill="none"/><path d="M788.96 230.87l-3.4 2.1-.94-1.52 1-.73 2.05-1.94zM807.34 264.46l-11.43-9.7 7.9-4.87z" fill="#494949"/><path d="M810.74 269.97L792.5 254.5l12.6-7.76zM799.3 255l4.64 3.95-1.44-5.9z" fill="#494949"/><path d="M730.76 230.1l-12.23 19.76" stroke="#494949" stroke-width="4" fill="none"/><path d="M732.74 229.27l.58.48-.86 1.4-3.4-2.1 1.36-2.22zM722.1 252.92l-11.46 9.7 3.56-14.58z" fill="#494949"/><path d="M725.48 252.67l-18.24 15.45 5.67-23.23zm-11.44 4.44l4.65-3.93-3.2-1.98z" fill="#494949"/><path d="M638.5 56.67l218.74 57.84" stroke="#494949" stroke-width="4" fill="none"/><path d="M639 54.74L638 58.6l-2.3-.6 1.55-3.35.12-.35zM871.74 118.35l-14.98.83 2.37-8.96z" fill="#494949"/><path d="M878 120l-23.87 1.33 3.77-14.3zm-18.6-2.97l6.08-.34-5.12-3.3z" fill="#494949"/><g filter="url(#a)"><path d="M400 620c0 22.1-17.9 40-40 40s-40-17.9-40-40 17.9-40 40-40 40 17.9 40 40z" stroke="#3d4752" stroke-width="4" fill="#fff"/><use xlink:href="#d" transform="matrix(1,0,0,1,340,580) translate(14.074074074074073 43.55555555555556)"/></g><g filter="url(#a)"><path d="M560 660c0 22.1-17.9 40-40 40s-40-17.9-40-40 17.9-40 40-40 40 17.9 40 40z" stroke="#3d4752" stroke-width="4" fill="#fff"/><use xlink:href="#e" transform="matrix(1,0,0,1,500,620) translate(13.604938271604937 43.55555555555556)"/></g><g filter="url(#a)"><path d="M700 760c0 22.1-17.9 40-40 40s-40-17.9-40-40 17.9-40 40-40 40 17.9 40 40z" stroke="#3d4752" stroke-width="4" fill="#fff"/><use xlink:href="#f" transform="matrix(1,0,0,1,640,720) translate(14.074074074074073 43.55555555555556)"/></g><g filter="url(#a)"><path d="M480 840c0 22.1-17.9 40-40 40s-40-17.9-40-40 17.9-40 40-40 40 17.9 40 40z" stroke="#3d4752" stroke-width="4" fill="#fff"/><use xlink:href="#g" transform="matrix(1,0,0,1,420,800) translate(14.592592592592592 43.55555555555556)"/></g><g filter="url(#a)"><path d="M800 600c0 22.1-17.9 40-40 40s-40-17.9-40-40 17.9-40 40-40 40 17.9 40 40z" stroke="#3d4752" stroke-width="4" fill="#fff"/><use xlink:href="#h" transform="matrix(1,0,0,1,740,560) translate(13.604938271604937 43.55555555555556)"/></g><g filter="url(#a)"><path d="M960 740c0 22.1-17.9 40-40 40s-40-17.9-40-40 17.9-40 40-40 40 17.9 40 40z" stroke="#3d4752" stroke-width="4" fill="#fff"/><use xlink:href="#i" transform="matrix(1,0,0,1,900,700) translate(13.08641975308642 43.55555555555556)"/></g><path d="M880.48 710.42l-2.75 2.9-28.48-27.07h.9v-4.67zm-59.1-56.17h-.87v4.68l-30.8-29.28 2.76-2.9zM792.46 626.75l-2.75 2.9-1.47-1.4 1.04-1 1.64-1.98zM889.98 722.2l-13.54-6.46 6.4-6.72z" fill="#494949"/><path d="M894.67 726.67l-21.57-10.3 10.18-10.72zm-14.88-11.55l5.48 2.63-2.9-5.36z" fill="#494949"/><use xlink:href="#j" transform="matrix(1,0,0,1,820.5075991803549,654.2539983942917) translate(0.005000000000000782 21.333333333333336)"/><path d="M632.6 635l-49.84 19.16-1.44-3.73 51.27-19.72zm86.12-33.13l-71.3 27.42V625l69.86-26.87z" fill="#494949"/><path d="M720.17 597.3L720 600l.05 1.35-1.33.52-1.44-3.74 2.8-1.07zM583.02 656.88l-14.98.8 11.65-9.45z" fill="#494949"/><path d="M585.88 658.73L562 660l18.57-15.06zm-11.8-3.38l6.1-.32-1.37-3.5z" fill="#494949"/><use xlink:href="#k" transform="matrix(1,0,0,1,632.5925925925926,614) translate(0.004999999999999893 21.333333333333336)"/><path d="M575.4 483.37l-4.44 1.07-16.34 4.66-16.78 5.56-16.88 6.38-16.6 7.08-15.96 7.6-15.04 7.98-13.9 8.12-12.67 8.13-11.42 8-10.16 7.8-9 7.54-7.95 7.2-6.97 6.9-6.1 6.6-5.4 6.28-3.03-2.6 5.43-6.36 6.23-6.7 7.1-7 8.05-7.34 9.13-7.64 10.32-7.9 11.54-8.1 12.8-8.23 14.06-8.2 15.18-8.04 16.1-7.7 16.76-7.13 17.04-6.45 16.95-5.6 16.5-4.7 5.44-1.32zm82.98-13.94l8.6.5 7.8.77 7.1 1 6.44 1.2 5.88 1.34 5.37 1.46 4.93 1.57 4.53 1.66 4.17 1.73 3.87 1.8 3.58 1.84 3.33 1.9 3.1 1.94 2.9 2 2.72 2.03 2.54 2.08 2.4 2.13 2.25 2.18 2.1 2.24 2 2.3 1.9 2.34 1.77 2.42 1.67 2.5 1.58 2.57 1.5 2.66 1.38 2.76 1.3 2.87 1.2 3 1.1 3.14 1.03 3.3.9 3.45.47 2.13-3.9.85-.46-2.05-.86-3.3-.97-3.13-1.04-2.97-1.14-2.85-1.23-2.72-1.33-2.6-1.4-2.53-1.5-2.44-1.58-2.34-1.68-2.3-1.78-2.2-1.9-2.17-2-2.12-2.13-2.07-2.26-2-2.4-1.98-2.6-1.94-2.75-1.9-2.98-1.85-3.18-1.82-3.43-1.76-3.7-1.72-4.03-1.66-4.37-1.6-4.76-1.52-5.22-1.42-5.7-1.3-6.3-1.17-6.9-.98-7.64-.76-8.44-.47-9.33-.14-10.3.26-11.36.78-12.46 1.38-13.57 2.1-11 2.15v-4.08l10.32-2.03 13.74-2.1 12.62-1.4 11.53-.8 10.48-.28z" fill="#494949"/><path d="M389.8 590.3l-1.43 1.6-1.1-1.17-1.86-1.52 1.4-1.55zM759.35 551.56l-6.05-13.73 9.23-.93z" fill="#494949"/><path d="M760 558l-9.64-21.88 14.7-1.5zm-3.76-18.45l2.46 5.57 1.3-5.95z" fill="#494949"/><use xlink:href="#l" transform="matrix(1,0,0,1,575.392458433059,463.53511883317) translate(0.004999999999999893 21.333333333333336)"/><path d="M448.16 649.57l4.75 2.54 3.87 1.75 3.5 1.3 3.37 1.03 3.36.77 3.44.57 3.64.35 3.98.13-.13 4-4.1-.13-3.9-.38-3.7-.62-3.62-.84-3.6-1.1-3.75-1.4-4.1-1.84-4.88-2.6v-4.68zm-16.7-10.2v4.7l-11.3-6.9 2.1-3.42z" fill="#494949"/><path d="M480.1 658.25L480 660l.08 2.28-2.33-.3.5-3.96zM422.2 630.88l-3.17 8.72-11.82-9.24z" fill="#494949"/><path d="M425.03 628.98l-5.06 13.9-18.84-14.73zm-6.93 7.35l1.28-3.54-6.08-.23z" fill="#494949"/><use xlink:href="#m" transform="matrix(1,0,0,1,431.4559187742727,630.2396763059969) translate(0.004999999999999893 21.333333333333336)"/><path d="M711.16 681.6l-8.37 3.3-12.82 5.3-6.26 2.96-4.23 2.3-3.15 1.9-2.44 1.64-1.95 1.47-1.6 1.34-1.33 1.24-1.12 1.14-.95 1.07-.82 1.02-.7.98-.6.93-.54.9-.47.9-.4.88-.33.86-.3.86-.24.86-.2.87-.15.9-.1.9-.08.93-.02 1.02-4-.1.03-1.12.08-1.13.15-1.1.2-1.08.24-1.07.3-1.05.34-1.05.4-1.05.5-1.06.54-1.07.63-1.08.72-1.1.82-1.15.95-1.18 1.07-1.22 1.26-1.3 1.48-1.35 1.77-1.46 2.1-1.6 2.62-1.76 3.3-2 4.4-2.4 6.45-3.05 12.94-5.34 9.86-3.9zm40.36-19.76l-1 .82-2.1 1.6-2.6 1.76-3.32 2-4.4 2.4-6.47 3.06-5.66 2.24v-4.3l4.07-1.6 6.24-2.98 4.23-2.3 3.15-1.9 2.44-1.64 1.95-1.47.9-.76z" fill="#494949"/><path d="M661.87 718.7l-.52 1.38L660 720l-2.87.1 1-2.8zM754.33 662.48l-8.18-4.36 10.8-10.4z" fill="#494949"/><path d="M755.82 665.54l-13.04-6.95L760 642zm-6.3-7.9l3.32 1.78 1.07-6z" fill="#494949"/><use xlink:href="#n" transform="matrix(1,0,0,1,711.1555575589986,660.5020822784237) translate(0.004999999999999893 21.333333333333336)"/><path d="M902.65 626.22l4 2.8 3.6 2.72 3.24 2.68 2.9 2.62 2.6 2.57 2.35 2.5 2.12 2.46 1.9 2.4 1.7 2.36 1.54 2.3 1.38 2.3 1.24 2.24 1.1 2.23.98 2.2.86 2.18.76 2.18.65 2.18.56 2.18.46 2.18.36 2.2.28 2.2.18 2.24.1 2.27v2.3l-.1 2.36-.22 2.4-.3 2.46-.44 2.53-.56 2.6-.7 2.7-.84 2.78-3.83-1.16.82-2.7.65-2.53.53-2.44.4-2.37.3-2.3.18-2.23.1-2.18v-2.13l-.07-2.1-.17-2.08-.26-2.05-.34-2.03-.43-2.02-.5-2-.62-2.02-.7-2.03-.8-2.03-.9-2.05-1.03-2.1-1.15-2.1-1.3-2.13-1.44-2.17-1.6-2.22-1.8-2.27-2-2.32-2.23-2.38-2.5-2.44-2.77-2.5-3.1-2.58-3.47-2.64-3.77-2.63v-4.74zm-76.32-26.63l8.63 1.27 8.64 1.66 8.47 2 8.15 2.28 7.7 2.53 7.2 2.68 6.6 2.8 4 1.88v4.42l-5.62-2.65-6.47-2.72-7.02-2.63-7.54-2.46-8-2.24-8.3-1.96-8.47-1.62-8.47-1.26-2.62-.28.43-3.98z" fill="#494949"/><path d="M934.4 700.34l-.43 2.2-3.83-1.23.35-1.74zM822.42 605.87l-13.96-5.48 14.52-3.78z" fill="#494949"/><path d="M824.25 608.74L802 600l23.14-6zm-9.33-7.96l5.67 2.22.22-3.75z" fill="#494949"/><use xlink:href="#l" transform="matrix(1,0,0,1,885.7120638449501,606.7548150991265) translate(0.004999999999999893 21.333333333333336)"/><path d="M491.8 769l-8.47 10.07-9.28 11.42-5.75 7.84-4.64 7.06-3.34-2.2 4.7-7.14 5.86-8 9.37-11.54 11.56-13.74zm27.53-45.27l-.16.65-1.06 3.57-1.22 3.52-1.44 3.52-1.67 3.6-1.97 3.74-2.38 4.03-2.8 4.23v-7.38l1.68-2.83 1.88-3.6 1.6-3.4 1.36-3.35 1.17-3.34 1-3.37.15-.55z" fill="#494949"/><path d="M463.63 805.43l-1.1 1.58-3.37-2.12 1.18-1.72zM522.07 723.15l-9.2-1.13 6.34-13.6z" fill="#494949"/><path d="M524.56 725.47l-14.66-1.8L520 702zm-8.7-5.1l3.72.46-1.16-5.98z" fill="#494949"/><use xlink:href="#o" transform="matrix(1,0,0,1,491.81375218448375,741.0846960669084) translate(0.004999999999999893 21.333333333333336)"/><g filter="url(#a)"><path d="M320 760c0 22.1-17.9 40-40 40s-40-17.9-40-40 17.9-40 40-40 40 17.9 40 40z" stroke="#3d4752" stroke-width="4" fill="#fff"/><use xlink:href="#p" transform="matrix(1,0,0,1,260,720) translate(14.074074074074073 43.55555555555556)"/></g><path d="M420 1040h80v80h-80zM500 1040h80v80h-80zM580 1040h80v80h-80zM660 1040h80v80h-80zM740 1040h80v80h-80zM820 1040h80v80h-80zM900 1040h80v80h-80zM420 1120h80v80h-80zM500 1120h80v80h-80zM580 1120h80v80h-80zM660 1120h80v80h-80zM740 1120h80v80h-80zM820 1120h80v80h-80zM900 1120h80v80h-80zM420 1200h80v80h-80zM500 1200h80v80h-80zM580 1200h80v80h-80zM660 1200h80v80h-80zM740 1200h80v80h-80zM820 1200h80v80h-80zM900 1200h80v80h-80zM420 1280h80v80h-80zM500 1280h80v80h-80zM580 1280h80v80h-80zM660 1280h80v80h-80zM740 1280h80v80h-80zM820 1280h80v80h-80zM900 1280h80v80h-80zM420 1360h80v80h-80zM500 1360h80v80h-80zM580 1360h80v80h-80zM660 1360h80v80h-80zM740 1360h80v80h-80zM820 1360h80v80h-80zM900 1360h80v80h-80zM420 1440h80v80h-80zM500 1440h80v80h-80zM580 1440h80v80h-80zM660 1440h80v80h-80zM740 1440h80v80h-80zM820 1440h80v80h-80zM900 1440h80v80h-80zM420 1520h80v80h-80zM500 1520h80v80h-80zM580 1520h80v80h-80zM660 1520h80v80h-80zM740 1520h80v80h-80zM820 1520h80v80h-80zM900 1520h80v80h-80z" fill="#fff"/><path d="M420 1120h80M500 1120h80M580 1120h80M660 1120h80M740 1120h80M820 1120h80M900 1120h80M420 1120h80m-80 80h80M500 1120h80m-80 80h80M580 1120h80m-80 80h80M660 1120h80m-80 80h80M740 1120h80m-80 80h80M820 1120h80m-80 80h80M900 1120h80m-80 80h80M420 1200h80m-80 80h80M500 1200h80m-80 80h80M580 1200h80m-80 80h80M660 1200h80m-80 80h80M740 1200h80m-80 80h80M820 1200h80m-80 80h80M900 1200h80m-80 80h80M420 1280h80m-80 80h80M500 1280h80m-80 80h80M580 1280h80m-80 80h80M660 1280h80m-80 80h80M740 1280h80m-80 80h80M820 1280h80m-80 80h80M900 1280h80m-80 80h80M420 1360h80m-80 80h80M500 1360h80m-80 80h80M580 1360h80m-80 80h80M660 1360h80m-80 80h80M740 1360h80m-80 80h80M820 1360h80m-80 80h80M900 1360h80m-80 80h80M420 1440h80m-80 80h80M500 1440h80m-80 80h80M580 1440h80m-80 80h80M660 1440h80m-80 80h80M740 1440h80m-80 80h80M820 1440h80m-80 80h80M900 1440h80m-80 80h80M420 1520h80M500 1520h80M580 1520h80M660 1520h80M740 1520h80M820 1520h80M900 1520h80M500 1040v80M500 1040v80m80-80v80M580 1040v80m80-80v80M660 1040v80m80-80v80M740 1040v80m80-80v80M820 1040v80m80-80v80M900 1040v80M500 1120v80M500 1120v80m80-80v80M580 1120v80m80-80v80M660 1120v80m80-80v80M740 1120v80m80-80v80M820 1120v80m80-80v80M900 1120v80M500 1200v80M500 1200v80m80-80v80M580 1200v80m80-80v80M660 1200v80m80-80v80M740 1200v80m80-80v80M820 1200v80m80-80v80M900 1200v80M500 1280v80M500 1280v80m80-80v80M580 1280v80m80-80v80M660 1280v80m80-80v80M740 1280v80m80-80v80M820 1280v80m80-80v80M900 1280v80M500 1360v80M500 1360v80m80-80v80M580 1360v80m80-80v80M660 1360v80m80-80v80M740 1360v80m80-80v80M820 1360v80m80-80v80M900 1360v80M500 1440v80M500 1440v80m80-80v80M580 1440v80m80-80v80M660 1440v80m80-80v80M740 1440v80m80-80v80M820 1440v80m80-80v80M900 1440v80M500 1520v80M500 1520v80m80-80v80M580 1520v80m80-80v80M660 1520v80m80-80v80M740 1520v80m80-80v80M820 1520v80m80-80v80M900 1520v80M420 1040h560v560H420z" stroke="#000" stroke-width="4" fill="none"/><use xlink:href="#q" transform="matrix(1,0,0,1,425,1045) translate(30 38.6)"/><use xlink:href="#q" transform="matrix(1,0,0,1,505,1045) translate(30 38.6)"/><use xlink:href="#r" transform="matrix(1,0,0,1,585,1045) translate(30 38.6)"/><use xlink:href="#q" transform="matrix(1,0,0,1,425,1125) translate(30 38.6)"/><use xlink:href="#q" transform="matrix(1,0,0,1,505,1125) translate(30 38.6)"/><use xlink:href="#s" transform="matrix(1,0,0,1,585,1125) translate(30 38.6)"/><use xlink:href="#q" transform="matrix(1,0,0,1,425,1205) translate(30 38.6)"/><use xlink:href="#q" transform="matrix(1,0,0,1,505,1205) translate(30 38.6)"/><use xlink:href="#q" transform="matrix(1,0,0,1,585,1205) translate(30 38.6)"/><use xlink:href="#q" transform="matrix(1,0,0,1,665,1045) translate(30 38.6)"/><use xlink:href="#q" transform="matrix(1,0,0,1,745,1045) translate(30 38.6)"/><use xlink:href="#q" transform="matrix(1,0,0,1,825,1045) translate(30 38.6)"/><use xlink:href="#q" transform="matrix(1,0,0,1,905,1045) translate(30 38.6)"/><use xlink:href="#q" transform="matrix(1,0,0,1,665,1125) translate(30 38.6)"/><use xlink:href="#q" transform="matrix(1,0,0,1,745,1125) translate(30 38.6)"/><use xlink:href="#q" transform="matrix(1,0,0,1,825,1125) translate(30 38.6)"/><use xlink:href="#q" transform="matrix(1,0,0,1,905,1125) translate(30 38.6)"/><use xlink:href="#t" transform="matrix(1,0,0,1,665,1205) translate(30 38.6)"/><use xlink:href="#q" transform="matrix(1,0,0,1,745,1205) translate(30 38.6)"/><use xlink:href="#q" transform="matrix(1,0,0,1,825,1205) translate(30 38.6)"/><use xlink:href="#u" transform="matrix(1,0,0,1,905,1205) translate(25 38.6)"/><use xlink:href="#v" transform="matrix(1,0,0,1,425,1285) translate(30 38.6)"/><use xlink:href="#q" transform="matrix(1,0,0,1,505,1285) translate(30 38.6)"/><use xlink:href="#q" transform="matrix(1,0,0,1,585,1285) translate(30 38.6)"/><use xlink:href="#q" transform="matrix(1,0,0,1,665,1285) translate(30 38.6)"/><use xlink:href="#q" transform="matrix(1,0,0,1,745,1285) translate(30 38.6)"/><use xlink:href="#w" transform="matrix(1,0,0,1,825,1285) translate(30 38.6)"/><use xlink:href="#q" transform="matrix(1,0,0,1,905,1285) translate(30 38.6)"/><use xlink:href="#q" transform="matrix(1,0,0,1,425,1365) translate(30 38.6)"/><use xlink:href="#q" transform="matrix(1,0,0,1,505,1365) translate(30 38.6)"/><use xlink:href="#q" transform="matrix(1,0,0,1,585,1365) translate(30 38.6)"/><use xlink:href="#q" transform="matrix(1,0,0,1,665,1365) translate(30 38.6)"/><use xlink:href="#q" transform="matrix(1,0,0,1,745,1365) translate(30 38.6)"/><use xlink:href="#q" transform="matrix(1,0,0,1,825,1365) translate(30 38.6)"/><use xlink:href="#q" transform="matrix(1,0,0,1,905,1365) translate(30 38.6)"/><use xlink:href="#q" transform="matrix(1,0,0,1,425,1445) translate(30 38.6)"/><use xlink:href="#q" transform="matrix(1,0,0,1,505,1445) translate(30 38.6)"/><use xlink:href="#q" transform="matrix(1,0,0,1,585,1445) translate(30 38.6)"/><use xlink:href="#x" transform="matrix(1,0,0,1,665,1445) translate(30 38.6)"/><use xlink:href="#q" transform="matrix(1,0,0,1,745,1445) translate(30 38.6)"/><use xlink:href="#q" transform="matrix(1,0,0,1,825,1445) translate(30 38.6)"/><use xlink:href="#q" transform="matrix(1,0,0,1,905,1445) translate(30 38.6)"/><use xlink:href="#q" transform="matrix(1,0,0,1,425,1525) translate(30 38.6)"/><use xlink:href="#q" transform="matrix(1,0,0,1,505,1525) translate(30 38.6)"/><use xlink:href="#r" transform="matrix(1,0,0,1,585,1525) translate(30 38.6)"/><use xlink:href="#q" transform="matrix(1,0,0,1,665,1525) translate(30 38.6)"/><use xlink:href="#q" transform="matrix(1,0,0,1,745,1525) translate(30 38.6)"/><use xlink:href="#q" transform="matrix(1,0,0,1,825,1525) translate(30 38.6)"/><use xlink:href="#q" transform="matrix(1,0,0,1,905,1525) translate(30 38.6)"/><path d="M340 1040h80v80h-80zM340 1120h80v80h-80zM340 1200h80v80h-80zM340 1280h80v80h-80zM340 1360h80v80h-80zM340 1440h80v80h-80zM340 1520h80v80h-80z" fill="#fff"/><path d="M340 1120h80M340 1120h80m-80 80h80M340 1200h80m-80 80h80M340 1280h80m-80 80h80M340 1360h80m-80 80h80M340 1440h80m-80 80h80M340 1520h80M420 1040v80M420 1120v80M420 1200v80M420 1280v80M420 1360v80M420 1440v80M420 1520v80M340 1040h80v560h-80z" stroke="#000" stroke-width="2" fill="none"/><use xlink:href="#y" transform="matrix(1,0,0,1,345,1045) translate(29 38.6)"/><use xlink:href="#z" transform="matrix(1,0,0,1,345,1125) translate(29 38.6)"/><use xlink:href="#A" transform="matrix(1,0,0,1,345,1205) translate(28.525 38.6)"/><use xlink:href="#B" transform="matrix(1,0,0,1,345,1285) translate(28.525 38.6)"/><use xlink:href="#C" transform="matrix(1,0,0,1,345,1365) translate(29 38.6)"/><use xlink:href="#D" transform="matrix(1,0,0,1,345,1445) translate(29.525 38.6)"/><use xlink:href="#E" transform="matrix(1,0,0,1,345,1525) translate(28 38.6)"/><path d="M420 963h80v77h-80zM500 963h80v77h-80zM580 963h80v77h-80zM660 963h80v77h-80zM740 963h80v77h-80zM820 963h80v77h-80zM900 963h80v77h-80z" fill="#fff"/><path d="M420 1040h80M500 1040h80M580 1040h80M660 1040h80M740 1040h80M820 1040h80M900 1040h80M500 963v77M500 963v77m80-77v77M580 963v77m80-77v77M660 963v77m80-77v77M740 963v77m80-77v77M820 963v77m80-77v77M900 963v77M420 963h560v77H420z" stroke="#000" fill="none"/><use xlink:href="#y" transform="matrix(1,0,0,1,425,968) translate(29 37.1)"/><use xlink:href="#z" transform="matrix(1,0,0,1,505,968) translate(29 37.1)"/><use xlink:href="#A" transform="matrix(1,0,0,1,585,968) translate(28.525 37.1)"/><use xlink:href="#B" transform="matrix(1,0,0,1,665,968) translate(28.525 37.1)"/><use xlink:href="#C" transform="matrix(1,0,0,1,745,968) translate(29 37.1)"/><use xlink:href="#D" transform="matrix(1,0,0,1,825,968) translate(29.525 37.1)"/><use xlink:href="#E" transform="matrix(1,0,0,1,905,968) translate(28 37.1)"/><path d="M453.13 728.73h.45l-1.2 2.6-1.67 4.2-1.55 4.45-1.46 4.85-1.36 5.34-1.23 6.02-1.1 6.94-.94 8.34-.35 5.2-3.98-.27.35-5.28.97-8.52 1.13-7.13 1.27-6.2 1.4-5.5 1.5-5.02 1.63-4.64 1.74-4.33 1.88-4.1 2-3.95.55-.95zm35.35-40.87l-5.1 3.9-4.45 3.7-3.94 3.6-3.52 3.53-3.17 3.45-.36.45v-5.97l.65-.7 3.63-3.65 4.06-3.72 4.57-3.83 5.2-3.96z" fill="#494949"/><path d="M489.28 685.62l.85.9-1.6 1.3-2.52-3.1 1.64-1.34zM445.32 777.43l-5.1 14.1-4.16-14.4z" fill="#494949"/><path d="M448.14 775.52L440 798l-6.63-22.97zm-7.7 9.54l2.06-5.73-3.76-.12z" fill="#494949"/><use xlink:href="#F" transform="matrix(1,0,0,1,453.1259163283185,696.7295762630017) translate(0.004999999999999893 21.333333333333336)"/><defs><path fill="#3d4752" d="M194 0L95-120 63-95V0H30v-248h33v124l119-124h40L117-140 236 0h-42" id="G"/><path fill="#3d4752" d="M68-38c1 34 0 65-14 84H32c9-13 17-26 17-46H33v-38h35" id="H"/><g id="b"><use transform="matrix(0.04938271604938272,0,0,0.04938271604938272,0,0)" xlink:href="#G"/><use transform="matrix(0.04938271604938272,0,0,0.04938271604938272,11.851851851851853,0)" xlink:href="#H"/></g><path fill="#3d4752" d="M137 0h-34L2-248h35l83 218 83-218h36" id="I"/><use transform="matrix(0.04938271604938272,0,0,0.04938271604938272,0,0)" xlink:href="#I" id="c"/><filter id="a" filterUnits="objectBoundingBox" x="-.13" y="-.05" width="1.25" height="1.25"><feOffset result="offOut" in="SourceAlpha" dy="6"/><feGaussianBlur result="blurOut" in="offOut" stdDeviation="5"/><feColorMatrix result="colorOut" in="blurOut" values="0 0 0 0 0 0 0 0 0 0 0 0 0 0 0 0 0 0 0.16862745098039217 0"/><feBlend in="SourceGraphic" in2="colorOut"/></filter><path fill="#3d4752" d="M205 0l-28-72H64L36 0H1l101-248h38L239 0h-34zm-38-99l-47-123c-12 45-31 82-46 123h93" id="J"/><use transform="matrix(0.04938271604938272,0,0,0.04938271604938272,0,0)" xlink:href="#J" id="d"/><path fill="#3d4752" d="M30-248c118-7 216 8 213 122C240-48 200 0 122 0H30v-248zM63-27c89 8 146-16 146-99s-60-101-146-95v194" id="K"/><use transform="matrix(0.04938271604938272,0,0,0.04938271604938272,0,0)" xlink:href="#K" id="e"/><path fill="#3d4752" d="M160-131c35 5 61 23 61 61C221 17 115-2 30 0v-248c76 3 177-17 177 60 0 33-19 50-47 57zm-97-11c50-1 110 9 110-42 0-47-63-36-110-37v79zm0 115c55-2 124 14 124-45 0-56-70-42-124-44v89" id="L"/><use transform="matrix(0.04938271604938272,0,0,0.04938271604938272,0,0)" xlink:href="#L" id="f"/><path fill="#3d4752" d="M63-220v92h138v28H63V0H30v-248h175v28H63" id="M"/><use transform="matrix(0.04938271604938272,0,0,0.04938271604938272,0,0)" xlink:href="#M" id="g"/><path fill="#3d4752" d="M212-179c-10-28-35-45-73-45-59 0-87 40-87 99 0 60 29 101 89 101 43 0 62-24 78-52l27 14C228-24 195 4 139 4 59 4 22-46 18-125c-6-104 99-153 187-111 19 9 31 26 39 46" id="N"/><use transform="matrix(0.04938271604938272,0,0,0.04938271604938272,0,0)" xlink:href="#N" id="h"/><path fill="#3d4752" d="M143 4C61 4 22-44 18-125c-5-107 100-154 193-111 17 8 29 25 37 43l-32 9c-13-25-37-40-76-40-61 0-88 39-88 99 0 61 29 100 91 101 35 0 62-11 79-27v-45h-74v-28h105v86C228-13 192 4 143 4" id="O"/><use transform="matrix(0.04938271604938272,0,0,0.04938271604938272,0,0)" xlink:href="#O" id="i"/><path fill="#3d4752" d="M27 0v-27h64v-190l-56 39v-29l58-41h29v221h61V0H27" id="P"/><path fill="#3d4752" d="M101-251c68 0 85 55 85 127S166 4 100 4C33 4 14-52 14-124c0-73 17-127 87-127zm-1 229c47 0 54-49 54-102s-4-102-53-102c-51 0-55 48-55 102 0 53 5 102 54 102" id="Q"/><g id="j"><use transform="matrix(0.07407407407407408,0,0,0.07407407407407408,0,0)" xlink:href="#P"/><use transform="matrix(0.07407407407407408,0,0,0.07407407407407408,14.814814814814817,0)" xlink:href="#Q"/></g><path fill="#3d4752" d="M101-251c82-7 93 87 43 132L82-64C71-53 59-42 53-27h129V0H18c2-99 128-94 128-182 0-28-16-43-45-43s-46 15-49 41l-32-3c6-41 34-60 81-64" id="R"/><use transform="matrix(0.07407407407407408,0,0,0.07407407407407408,0,0)" xlink:href="#R" id="k"/><path fill="#3d4752" d="M64 0c3-98 48-159 88-221H18v-27h164v26C143-157 98-101 97 0H64" id="S"/><use transform="matrix(0.07407407407407408,0,0,0.07407407407407408,0,0)" xlink:href="#S" id="l"/><path fill="#3d4752" d="M155-56V0h-30v-56H8v-25l114-167h33v167h35v25h-35zm-30-156c-27 46-58 90-88 131h88v-131" id="T"/><use transform="matrix(0.07407407407407408,0,0,0.07407407407407408,0,0)" xlink:href="#T" id="m"/><path fill="#3d4752" d="M134-131c28 9 52 24 51 62-1 50-34 73-85 73S17-19 16-69c0-36 21-54 49-61-75-25-45-126 34-121 46 3 78 18 79 63 0 33-17 51-44 57zm-34-11c31 1 46-15 46-44 0-28-17-43-47-42-29 0-46 13-45 42 1 28 16 44 46 44zm1 122c35 0 51-18 51-52 0-30-18-46-53-46-33 0-51 17-51 47 0 34 19 51 53 51" id="U"/><use transform="matrix(0.07407407407407408,0,0,0.07407407407407408,0,0)" xlink:href="#U" id="n"/><path fill="#3d4752" d="M54-142c48-35 137-8 131 61C196 18 31 33 14-55l32-4c7 23 22 37 52 37 35-1 51-22 54-58 4-55-73-65-99-34H22l8-134h141v27H59" id="V"/><use transform="matrix(0.07407407407407408,0,0,0.07407407407407408,0,0)" xlink:href="#V" id="o"/><path fill="#3d4752" d="M30 0v-248h187v28H63v79h144v27H63v87h162V0H30" id="W"/><use transform="matrix(0.04938271604938272,0,0,0.04938271604938272,0,0)" xlink:href="#W" id="p"/><path d="M101-251c68 0 85 55 85 127S166 4 100 4C33 4 14-52 14-124c0-73 17-127 87-127zm-1 229c47 0 54-49 54-102s-4-102-53-102c-51 0-55 48-55 102 0 53 5 102 54 102" id="X"/><use transform="matrix(0.05,0,0,0.05,0,0)" xlink:href="#X" id="q"/><path d="M64 0c3-98 48-159 88-221H18v-27h164v26C143-157 98-101 97 0H64" id="Y"/><use transform="matrix(0.05,0,0,0.05,0,0)" xlink:href="#Y" id="r"/><path d="M134-131c28 9 52 24 51 62-1 50-34 73-85 73S17-19 16-69c0-36 21-54 49-61-75-25-45-126 34-121 46 3 78 18 79 63 0 33-17 51-44 57zm-34-11c31 1 46-15 46-44 0-28-17-43-47-42-29 0-46 13-45 42 1 28 16 44 46 44zm1 122c35 0 51-18 51-52 0-30-18-46-53-46-33 0-51 17-51 47 0 34 19 51 53 51" id="Z"/><use transform="matrix(0.05,0,0,0.05,0,0)" xlink:href="#Z" id="s"/><path d="M101-251c82-7 93 87 43 132L82-64C71-53 59-42 53-27h129V0H18c2-99 128-94 128-182 0-28-16-43-45-43s-46 15-49 41l-32-3c6-41 34-60 81-64" id="aa"/><use transform="matrix(0.05,0,0,0.05,0,0)" xlink:href="#aa" id="t"/><path d="M27 0v-27h64v-190l-56 39v-29l58-41h29v221h61V0H27" id="ab"/><g id="u"><use transform="matrix(0.05,0,0,0.05,0,0)" xlink:href="#ab"/><use transform="matrix(0.05,0,0,0.05,10,0)" xlink:href="#X"/></g><path d="M155-56V0h-30v-56H8v-25l114-167h33v167h35v25h-35zm-30-156c-27 46-58 90-88 131h88v-131" id="ac"/><use transform="matrix(0.05,0,0,0.05,0,0)" xlink:href="#ac" id="v"/><path d="M126-127c33 6 58 20 58 59 0 88-139 92-164 29-3-8-5-16-6-25l32-3c6 27 21 44 54 44 32 0 52-15 52-46 0-38-36-46-79-43v-28c39 1 72-4 72-42 0-27-17-43-46-43-28 0-47 15-49 41l-32-3c6-42 35-63 81-64 48-1 79 21 79 65 0 36-21 52-52 59" id="ad"/><use transform="matrix(0.05,0,0,0.05,0,0)" xlink:href="#ad" id="w"/><path d="M54-142c48-35 137-8 131 61C196 18 31 33 14-55l32-4c7 23 22 37 52 37 35-1 51-22 54-58 4-55-73-65-99-34H22l8-134h141v27H59" id="ae"/><use transform="matrix(0.05,0,0,0.05,0,0)" xlink:href="#ae" id="x"/><path d="M205 0l-28-72H64L36 0H1l101-248h38L239 0h-34zm-38-99l-47-123c-12 45-31 82-46 123h93" id="af"/><use transform="matrix(0.05,0,0,0.05,0,0)" xlink:href="#af" id="y"/><path d="M160-131c35 5 61 23 61 61C221 17 115-2 30 0v-248c76 3 177-17 177 60 0 33-19 50-47 57zm-97-11c50-1 110 9 110-42 0-47-63-36-110-37v79zm0 115c55-2 124 14 124-45 0-56-70-42-124-44v89" id="ag"/><use transform="matrix(0.05,0,0,0.05,0,0)" xlink:href="#ag" id="z"/><path d="M212-179c-10-28-35-45-73-45-59 0-87 40-87 99 0 60 29 101 89 101 43 0 62-24 78-52l27 14C228-24 195 4 139 4 59 4 22-46 18-125c-6-104 99-153 187-111 19 9 31 26 39 46" id="ah"/><use transform="matrix(0.05,0,0,0.05,0,0)" xlink:href="#ah" id="A"/><path d="M30-248c118-7 216 8 213 122C240-48 200 0 122 0H30v-248zM63-27c89 8 146-16 146-99s-60-101-146-95v194" id="ai"/><use transform="matrix(0.05,0,0,0.05,0,0)" xlink:href="#ai" id="B"/><path d="M30 0v-248h187v28H63v79h144v27H63v87h162V0H30" id="aj"/><use transform="matrix(0.05,0,0,0.05,0,0)" xlink:href="#aj" id="C"/><path d="M63-220v92h138v28H63V0H30v-248h175v28H63" id="ak"/><use transform="matrix(0.05,0,0,0.05,0,0)" xlink:href="#ak" id="D"/><path d="M143 4C61 4 22-44 18-125c-5-107 100-154 193-111 17 8 29 25 37 43l-32 9c-13-25-37-40-76-40-61 0-88 39-88 99 0 61 29 100 91 101 35 0 62-11 79-27v-45h-74v-28h105v86C228-13 192 4 143 4" id="al"/><use transform="matrix(0.05,0,0,0.05,0,0)" xlink:href="#al" id="E"/><path fill="#3d4752" d="M126-127c33 6 58 20 58 59 0 88-139 92-164 29-3-8-5-16-6-25l32-3c6 27 21 44 54 44 32 0 52-15 52-46 0-38-36-46-79-43v-28c39 1 72-4 72-42 0-27-17-43-46-43-28 0-47 15-49 41l-32-3c6-42 35-63 81-64 48-1 79 21 79 65 0 36-21 52-52 59" id="am"/><use transform="matrix(0.07407407407407408,0,0,0.07407407407407408,0,0)" xlink:href="#am" id="F"/></defs></g></svg>