<svg xmlns="http://www.w3.org/2000/svg" xmlns:xlink="http://www.w3.org/1999/xlink" xmlns:lucid="lucid" width="1360" height="1760"><g transform="translate(0 0)" lucid:page-tab-id="YGcM5DNywbTK"><path d="M0 0h1360v1760H0z" fill="#fff"/><path d="M180 380h80v80h-80zM180 460h80v80h-80zM180 540h80v80h-80zM180 620h80v80h-80zM180 700h80v80h-80zM180 780h80v80h-80z" fill="#fff"/><path d="M180 460h80M180 460h80m-80 80h80M180 540h80m-80 80h80M180 620h80m-80 80h80M180 700h80m-80 80h80M180 780h80M260 380v80M260 460v80M260 540v80M260 620v80M260 700v80M260 780v80M180 380h80v480h-80z" stroke="#000" stroke-width="4" fill="none"/><use xlink:href="#a" transform="matrix(1,0,0,1,185,385.00000000000006) translate(30 38.6)"/><use xlink:href="#b" transform="matrix(1,0,0,1,185,465.00000000000006) translate(30 38.6)"/><use xlink:href="#c" transform="matrix(1,0,0,1,185,545) translate(30 38.6)"/><use xlink:href="#d" transform="matrix(1,0,0,1,185,625) translate(30 38.6)"/><use xlink:href="#e" transform="matrix(1,0,0,1,185,705) translate(30 38.6)"/><use xlink:href="#f" transform="matrix(1,0,0,1,185,785) translate(30 38.6)"/><g filter="url(#g)"><path d="M60 300h80v80H60z" stroke="#3d4752" stroke-width="4" fill="#fff"/><use xlink:href="#h" transform="matrix(1,0,0,1,65,305) translate(30.061728395061728 38.55555555555556)"/></g><path d="M142 340l5.37.35 5.04 1 4.74 1.62 4.4 2.18 4 2.7 3.63 3.2 3.16 3.64 1.93 2.9" stroke="#494949" stroke-width="4" fill="none"/><path d="M142.38 338.04l-.76 3.92-1.62-.3v-4.08zM178.25 371.77l-8.33-12.48 8.92-2.52z" fill="#494949"/><path d="M180 378l-13.27-19.88 14.22-4zm-6.9-17.53l3.4 5.07.23-6.1z" fill="#494949"/><g filter="url(#g)"><path d="M300 300h80v80h-80z" stroke="#3d4752" stroke-width="4" fill="#fff"/><use xlink:href="#i" transform="matrix(1,0,0,1,305,305) translate(30.061728395061728 38.55555555555556)"/></g><path d="M277.6 345.74l-3.15 2.1-3.62 3.2-3.16 3.65-2.67 4.03-2.15 4.4-1.57 4.76-.97 5.06-.3 5.04" stroke="#494949" stroke-width="4" fill="none"/><path d="M291.77 341.75l-12.48 8.32-2.52-8.92z" fill="#494949"/><path d="M298 340l-19.9 13.27-4-14.23zm-17.53 6.88l5.07-3.38-6.1-.24zM258.04 377.63l3.92.74-.56 2.95-1.4-.27V380h-2.42z" fill="#494949"/><path d="M240 80h83v80h-83zM323 80h83v80h-83zM406 80h83v80h-83z" fill="#fff"/><path d="M240 160h83M323 160h83M406 160h83M323 80v80M323 80v80m83-80v80M406 80v80M240 80h249v80H240z" stroke="#000" stroke-width="4" fill="none"/><use xlink:href="#c" transform="matrix(1,0,0,1,245,85) translate(31.5 38.6)"/><use xlink:href="#d" transform="matrix(1,0,0,1,328,85) translate(31.5 38.6)"/><use xlink:href="#e" transform="matrix(1,0,0,1,411,85) translate(31.5 38.6)"/><g filter="url(#g)"><path d="M80 80h80v80H80z" stroke="#3d4752" stroke-width="4" fill="#fff"/><use xlink:href="#j" transform="matrix(1,0,0,1,85,85) translate(30.061728395061728 38.55555555555556)"/></g><g filter="url(#g)"><path d="M560 80h80v80h-80z" stroke="#3d4752" stroke-width="4" fill="#fff"/><use xlink:href="#k" transform="matrix(1,0,0,1,565,85) translate(30.061728395061728 38.55555555555556)"/></g><path d="M162 120h54.53" stroke="#494949" stroke-width="4" fill="none"/><path d="M162 122h-2v-4h2zM231.53 120l-14.27 4.64v-9.28z" fill="#494949"/><path d="M238 120l-22.74 7.4v-14.8zm-18.74 1.88l5.8-1.88-5.8-1.88z" fill="#494949"/><path d="M491 120h45.53" stroke="#494949" stroke-width="4" fill="none"/><path d="M491 122h-2v-4h2zM551.53 120l-14.27 4.64v-9.28z" fill="#494949"/><path d="M558 120l-22.74 7.4v-14.8zm-18.74 1.88l5.8-1.88-5.8-1.88z" fill="#494949"/><g filter="url(#g)"><path d="M602 200h80v80h-80z" stroke="#3d4752" stroke-width="4" fill="#fff"/><use xlink:href="#k" transform="matrix(1,0,0,1,607,205) translate(30.061728395061728 38.55555555555556)"/></g><g filter="url(#g)"><path d="M760 200h80v80h-80z" stroke="#3d4752" stroke-width="4" fill="#fff"/><use xlink:href="#l" transform="matrix(1,0,0,1,765,205) translate(30.061728395061728 38.55555555555556)"/></g><path d="M684 217.33h52.53" stroke="#494949" stroke-width="4" fill="none"/><path d="M684 219.33h-2v-4h2zM751.53 217.33l-14.27 4.64v-9.27z" fill="#494949"/><path d="M758 217.33l-22.74 7.4v-14.78zm-18.74 1.9l5.8-1.9-5.8-1.88z" fill="#494949"/><path d="M758 258.67h-52.53" stroke="#494949" stroke-width="4" fill="none"/><path d="M760 260.67h-2v-4h2zM704.74 263.3l-14.27-4.63 14.27-4.64z" fill="#494949"/><path d="M706.74 266.05L684 258.67l22.74-7.4zm-9.8-7.38l5.8 1.88v-3.77z" fill="#494949"/><g filter="url(#g)"><path d="M920 200h80v80h-80z" stroke="#3d4752" stroke-width="4" fill="#fff"/><use xlink:href="#m" transform="matrix(1,0,0,1,925,205) translate(30.061728395061728 38.55555555555556)"/></g><g filter="url(#g)"><path d="M1078 200h80v80h-80z" stroke="#3d4752" stroke-width="4" fill="#fff"/><use xlink:href="#n" transform="matrix(1,0,0,1,1083,205) translate(30.061728395061728 38.55555555555556)"/></g><path d="M1002 217.33h52.53" stroke="#494949" stroke-width="4" fill="none"/><path d="M1002 219.33h-2v-4h2zM1069.53 217.33l-14.27 4.64v-9.27z" fill="#494949"/><path d="M1076 217.33l-22.74 7.4v-14.78zm-18.74 1.9l5.8-1.9-5.8-1.88z" fill="#494949"/><path d="M1076 258.67h-52.53" stroke="#494949" stroke-width="4" fill="none"/><path d="M1078 260.67h-2v-4h2zM1022.74 263.3l-14.27-4.63 14.27-4.64z" fill="#494949"/><path d="M1024.74 266.05l-22.74-7.38 22.74-7.4zm-9.8-7.38l5.8 1.88v-3.77z" fill="#494949"/><path d="M842 214.67h54.53" stroke="#494949" stroke-width="4" fill="none"/><path d="M842 216.67h-2v-4h2zM911.53 214.67l-14.27 4.63v-9.27z" fill="#494949"/><path d="M918 214.67l-22.74 7.38v-14.77zm-18.74 1.88l5.8-1.88-5.8-1.9z" fill="#494949"/><path d="M918 256h-54.53" stroke="#494949" stroke-width="4" fill="none"/><path d="M920 258h-2v-4h2zM862.74 260.64L848.47 256l14.27-4.64z" fill="#494949"/><path d="M864.74 263.4L842 256l22.74-7.4zm-9.8-7.4l5.8 1.88v-3.76z" fill="#494949"/><path d="M1160 218.67h58.53" stroke="#494949" stroke-width="4" fill="none"/><path d="M1160 220.67h-2v-4h2z" fill="#494949"/><path d="M1233.53 218.67l-14.27 4.63v-9.27z" stroke="#494949" stroke-width="4" fill="#494949"/><path d="M600 260h-58.53" stroke="#494949" stroke-width="4" fill="none"/><path d="M602 262h-2v-4h2z" fill="#494949"/><path d="M526.47 260l14.27-4.64v9.28z" stroke="#494949" stroke-width="4" fill="#494949"/><path d="M489 440h80v80h-80zM569 440h80v80h-80zM649 440h80v80h-80zM729 440h80v80h-80zM809 440h80v80h-80zM889 440h80v80h-80zM969 440h80v80h-80zM1049 440h80v80h-80z" fill="#fff"/><path d="M489 520h80M569 520h80M649 520h80M729 520h80M809 520h80M889 520h80M969 520h80M1049 520h80M569 440v80M569 440v80m80-80v80M649 440v80m80-80v80M729 440v80m80-80v80M809 440v80m80-80v80M889 440v80m80-80v80M969 440v80m80-80v80M1049 440v80M489 440h640v80H489z" stroke="#000" stroke-width="5" fill="none"/><use xlink:href="#o" transform="matrix(1,0,0,1,494,445) translate(30 38.6)"/><use xlink:href="#p" transform="matrix(1,0,0,1,574,445) translate(30 38.6)"/><use xlink:href="#q" transform="matrix(1,0,0,1,654,445) translate(30.5 38.6)"/><use xlink:href="#r" transform="matrix(1,0,0,1,734,445) translate(30 38.6)"/><use xlink:href="#s" transform="matrix(1,0,0,1,814,445) translate(30 38.6)"/><path d="M489 540h80v37h-80zM569 540h80v37h-80zM649 540h80v37h-80zM729 540h80v37h-80zM809 540h80v37h-80zM889 540h80v37h-80zM969 540h80v37h-80zM1049 540h80v37h-80z" fill="#fff"/><path d="M569 540v37M569 540v37m80-37v37M649 540v37m80-37v37M729 540v37m80-37v37M809 540v37m80-37v37M889 540v37m80-37v37M969 540v37m80-37v37M1049 540v37M489 540h640v37H489z" stroke="#fff" stroke-width=".5" fill="none"/><use xlink:href="#f" transform="matrix(1,0,0,1,494,545) translate(30 17.1)"/><use xlink:href="#e" transform="matrix(1,0,0,1,574,545) translate(30 17.1)"/><use xlink:href="#d" transform="matrix(1,0,0,1,654,545) translate(30 17.1)"/><use xlink:href="#c" transform="matrix(1,0,0,1,734,545) translate(30 17.1)"/><use xlink:href="#b" transform="matrix(1,0,0,1,814,545) translate(30 17.1)"/><use xlink:href="#a" transform="matrix(1,0,0,1,894,545) translate(30 17.1)"/><use xlink:href="#t" transform="matrix(1,0,0,1,974,545) translate(30 17.1)"/><use xlink:href="#u" transform="matrix(1,0,0,1,1054,545) translate(30 17.1)"/><defs><path d="M54-142c48-35 137-8 131 61C196 18 31 33 14-55l32-4c7 23 22 37 52 37 35-1 51-22 54-58 4-55-73-65-99-34H22l8-134h141v27H59" id="v"/><use transform="matrix(0.05,0,0,0.05,0,0)" xlink:href="#v" id="a"/><path d="M155-56V0h-30v-56H8v-25l114-167h33v167h35v25h-35zm-30-156c-27 46-58 90-88 131h88v-131" id="w"/><use transform="matrix(0.05,0,0,0.05,0,0)" xlink:href="#w" id="b"/><path d="M126-127c33 6 58 20 58 59 0 88-139 92-164 29-3-8-5-16-6-25l32-3c6 27 21 44 54 44 32 0 52-15 52-46 0-38-36-46-79-43v-28c39 1 72-4 72-42 0-27-17-43-46-43-28 0-47 15-49 41l-32-3c6-42 35-63 81-64 48-1 79 21 79 65 0 36-21 52-52 59" id="x"/><use transform="matrix(0.05,0,0,0.05,0,0)" xlink:href="#x" id="c"/><path d="M101-251c82-7 93 87 43 132L82-64C71-53 59-42 53-27h129V0H18c2-99 128-94 128-182 0-28-16-43-45-43s-46 15-49 41l-32-3c6-41 34-60 81-64" id="y"/><use transform="matrix(0.05,0,0,0.05,0,0)" xlink:href="#y" id="d"/><path d="M27 0v-27h64v-190l-56 39v-29l58-41h29v221h61V0H27" id="z"/><use transform="matrix(0.05,0,0,0.05,0,0)" xlink:href="#z" id="e"/><path d="M101-251c68 0 85 55 85 127S166 4 100 4C33 4 14-52 14-124c0-73 17-127 87-127zm-1 229c47 0 54-49 54-102s-4-102-53-102c-51 0-55 48-55 102 0 53 5 102 54 102" id="A"/><use transform="matrix(0.05,0,0,0.05,0,0)" xlink:href="#A" id="f"/><path fill="#3d4752" d="M64 0c3-98 48-159 88-221H18v-27h164v26C143-157 98-101 97 0H64" id="B"/><use transform="matrix(0.04938271604938272,0,0,0.04938271604938272,0,0)" xlink:href="#B" id="h"/><filter id="g" filterUnits="objectBoundingBox" x="-.13" y="-.05" width="1.25" height="1.25"><feOffset result="offOut" in="SourceAlpha" dy="6"/><feGaussianBlur result="blurOut" in="offOut" stdDeviation="5"/><feColorMatrix result="colorOut" in="blurOut" values="0 0 0 0 0 0 0 0 0 0 0 0 0 0 0 0 0 0 0.16862745098039217 0"/><feBlend in="SourceGraphic" in2="colorOut"/></filter><path fill="#3d4752" d="M110-160c48 1 74 30 74 79 0 53-28 85-80 85-65 0-83-55-86-122-5-90 50-162 133-122 14 7 22 21 27 39l-31 6c-5-40-67-38-82-6-9 19-15 44-15 74 11-20 30-34 60-33zm-7 138c34 0 49-23 49-58s-16-56-50-56c-29 0-50 16-49 49 1 36 15 65 50 65" id="C"/><use transform="matrix(0.04938271604938272,0,0,0.04938271604938272,0,0)" xlink:href="#C" id="i"/><path fill="#3d4752" d="M155-56V0h-30v-56H8v-25l114-167h33v167h35v25h-35zm-30-156c-27 46-58 90-88 131h88v-131" id="D"/><use transform="matrix(0.04938271604938272,0,0,0.04938271604938272,0,0)" xlink:href="#D" id="j"/><path fill="#3d4752" d="M101-251c68 0 85 55 85 127S166 4 100 4C33 4 14-52 14-124c0-73 17-127 87-127zm-1 229c47 0 54-49 54-102s-4-102-53-102c-51 0-55 48-55 102 0 53 5 102 54 102" id="E"/><use transform="matrix(0.04938271604938272,0,0,0.04938271604938272,0,0)" xlink:href="#E" id="k"/><path fill="#3d4752" d="M27 0v-27h64v-190l-56 39v-29l58-41h29v221h61V0H27" id="F"/><use transform="matrix(0.04938271604938272,0,0,0.04938271604938272,0,0)" xlink:href="#F" id="l"/><path fill="#3d4752" d="M101-251c82-7 93 87 43 132L82-64C71-53 59-42 53-27h129V0H18c2-99 128-94 128-182 0-28-16-43-45-43s-46 15-49 41l-32-3c6-41 34-60 81-64" id="G"/><use transform="matrix(0.04938271604938272,0,0,0.04938271604938272,0,0)" xlink:href="#G" id="m"/><path fill="#3d4752" d="M126-127c33 6 58 20 58 59 0 88-139 92-164 29-3-8-5-16-6-25l32-3c6 27 21 44 54 44 32 0 52-15 52-46 0-38-36-46-79-43v-28c39 1 72-4 72-42 0-27-17-43-46-43-28 0-47 15-49 41l-32-3c6-42 35-63 81-64 48-1 79 21 79 65 0 36-21 52-52 59" id="H"/><use transform="matrix(0.04938271604938272,0,0,0.04938271604938272,0,0)" xlink:href="#H" id="n"/><path d="M141-36C126-15 110 5 73 4 37 3 15-17 15-53c-1-64 63-63 125-63 3-35-9-54-41-54-24 1-41 7-42 31l-33-3c5-37 33-52 76-52 45 0 72 20 72 64v82c-1 20 7 32 28 27v20c-31 9-61-2-59-35zM48-53c0 20 12 33 32 33 41-3 63-29 60-74-43 2-92-5-92 41" id="I"/><use transform="matrix(0.05,0,0,0.05,0,0)" xlink:href="#I" id="o"/><path d="M115-194c53 0 69 39 70 98 0 66-23 100-70 100C84 3 66-7 56-30L54 0H23l1-261h32v101c10-23 28-34 59-34zm-8 174c40 0 45-34 45-75 0-40-5-75-45-74-42 0-51 32-51 76 0 43 10 73 51 73" id="J"/><use transform="matrix(0.05,0,0,0.05,0,0)" xlink:href="#J" id="p"/><path d="M96-169c-40 0-48 33-48 73s9 75 48 75c24 0 41-14 43-38l32 2c-6 37-31 61-74 61-59 0-76-41-82-99-10-93 101-131 147-64 4 7 5 14 7 22l-32 3c-4-21-16-35-41-35" id="K"/><use transform="matrix(0.05,0,0,0.05,0,0)" xlink:href="#K" id="q"/><path d="M85-194c31 0 48 13 60 33l-1-100h32l1 261h-30c-2-10 0-23-3-31C134-8 116 4 85 4 32 4 16-35 15-94c0-66 23-100 70-100zm9 24c-40 0-46 34-46 75 0 40 6 74 45 74 42 0 51-32 51-76 0-42-9-74-50-73" id="L"/><use transform="matrix(0.05,0,0,0.05,0,0)" xlink:href="#L" id="r"/><path d="M100-194c63 0 86 42 84 106H49c0 40 14 67 53 68 26 1 43-12 49-29l28 8c-11 28-37 45-77 45C44 4 14-33 15-96c1-61 26-98 85-98zm52 81c6-60-76-77-97-28-3 7-6 17-6 28h103" id="M"/><use transform="matrix(0.05,0,0,0.05,0,0)" xlink:href="#M" id="s"/><path d="M110-160c48 1 74 30 74 79 0 53-28 85-80 85-65 0-83-55-86-122-5-90 50-162 133-122 14 7 22 21 27 39l-31 6c-5-40-67-38-82-6-9 19-15 44-15 74 11-20 30-34 60-33zm-7 138c34 0 49-23 49-58s-16-56-50-56c-29 0-50 16-49 49 1 36 15 65 50 65" id="N"/><use transform="matrix(0.05,0,0,0.05,0,0)" xlink:href="#N" id="t"/><path d="M64 0c3-98 48-159 88-221H18v-27h164v26C143-157 98-101 97 0H64" id="O"/><use transform="matrix(0.05,0,0,0.05,0,0)" xlink:href="#O" id="u"/></defs></g></svg>